<?xml version="1.0" encoding="UTF-8"?>
<svg width="456px" height="412px" viewBox="0 0 456 412" version="1.1" xmlns="http://www.w3.org/2000/svg" xmlns:xlink="http://www.w3.org/1999/xlink">
    <title>holocron_logo_dark</title>
    <g id="Page-1" stroke="none" stroke-width="1" fill="none" fill-rule="evenodd">
        <g id="logo" transform="translate(-732, -442)" fill="#FFFFFF" fill-rule="nonzero">
            <g id="holocron_logo_dark" transform="translate(732.7427, 442.2857)">
                <path d="M155.274432,90.7143045 C157.057137,87.6265521 160.349014,85.7215309 163.914431,85.7142857 L290.71441,85.7142857 C294.294118,85.7072408 297.604558,87.6141765 299.394409,90.7143045 L362.834398,200.714286 C364.620726,203.808297 364.620726,207.620275 362.834398,210.714286 L299.394409,320.714267 C297.604558,323.814395 294.294118,325.721331 290.71441,325.714286 L163.914431,325.714286 C160.349014,325.707041 157.057137,323.802019 155.274432,320.714267 L91.8344426,210.714286 C90.048115,207.620275 90.048115,203.808297 91.8344426,200.714286 L155.274432,90.7143045 Z M145.794421,0 C122.857278,0 101.565849,12.2914286 90.0972777,32.1942857 L8.58299197,173.622857 C-2.86099732,193.486771 -2.86099732,217.941801 8.58299197,237.805714 L90.0972777,379.234286 C101.572034,399.151604 122.808129,411.428571 145.794421,411.428571 L308.822992,411.428571 C331.811563,411.428571 353.051563,399.137143 364.520135,379.234286 L446.085849,237.805714 C457.529838,217.941801 457.529838,193.486771 446.085849,173.622857 L364.520135,32.1942857 C353.045378,12.2769674 331.809284,0 308.822992,0 L145.794421,0 Z" id="Shape"></path>
            </g>
        </g>
    </g>
</svg>