<?xml version="1.0" encoding="UTF-8"?>
<!-- Generator: visioncortex VTracer 0.6.12 -->
<svg version="1.1" xmlns="http://www.w3.org/2000/svg" viewBox="235 332 730 201">
<path d="M0 0 C3.375 0.875 3.375 0.875 5.375 2.875 C6.058 9.009 4.266 13.535 1.938 19.062 C1.291 20.639 0.646 22.215 0.004 23.793 C-0.284 24.482 -0.572 25.17 -0.869 25.88 C-1.619 27.859 -2.154 29.813 -2.625 31.875 C-1.737 31.854 -0.849 31.833 0.065 31.812 C3.368 31.743 6.67 31.693 9.973 31.655 C11.401 31.635 12.828 31.608 14.256 31.573 C16.311 31.525 18.366 31.502 20.422 31.484 C21.658 31.463 22.894 31.442 24.167 31.421 C27.375 31.875 27.375 31.875 29.813 33.704 C31.375 35.875 31.375 35.875 31.312 39 C30.375 41.875 30.375 41.875 27.375 43.875 C24.695 44.115 22.109 44.248 19.426 44.289 C18.653 44.308 17.881 44.328 17.085 44.348 C14.619 44.407 12.153 44.454 9.688 44.5 C8.015 44.538 6.342 44.577 4.67 44.617 C0.572 44.713 -3.526 44.797 -7.625 44.875 C-13.966 62.51 -20.18 80.185 -26 98 C-26.127 98.388 -26.127 98.388 -26.768 100.349 C-30.26 111.085 -33.393 121.821 -35.751 132.874 C-37.608 141.214 -37.608 141.214 -41.625 143.875 C-47.839 143.661 -47.839 143.661 -50.625 140.875 C-51.901 133.079 -49.467 125.784 -47.125 118.438 C-46.465 116.315 -45.809 114.191 -45.156 112.066 C-44.863 111.14 -44.57 110.214 -44.268 109.26 C-43.625 106.875 -43.625 106.875 -43.625 103.875 C-43.979 104.288 -44.334 104.7 -44.699 105.125 C-52.361 113.436 -62.633 120.148 -74.062 121.188 C-79.544 120.707 -83.889 119.517 -87.938 115.688 C-93.284 106.776 -93.462 99.569 -91.056 89.493 C-85.803 69.474 -85.803 69.474 -80.625 61.875 C-77.575 60.35 -74.983 60.639 -71.625 60.875 C-69.906 62.16 -69.906 62.16 -68.625 63.875 C-68.508 70.782 -70.83 76.619 -73.365 82.938 C-76.115 89.826 -78.076 96.35 -77.625 103.875 C-77.295 104.535 -76.965 105.195 -76.625 105.875 C-69.034 106.718 -64.683 104.342 -58.625 99.875 C-55.144 97.019 -51.867 93.998 -48.625 90.875 C-47.827 90.117 -47.029 89.359 -46.207 88.578 C-43.947 86.383 -41.74 84.211 -39.625 81.875 C-39.165 81.376 -38.706 80.876 -38.232 80.362 C-32.83 73.919 -30.467 66.192 -27.75 58.375 C-27.249 56.966 -26.746 55.557 -26.242 54.148 C-25.022 50.729 -23.819 47.304 -22.625 43.875 C-22.953 43.88 -22.953 43.88 -24.613 43.907 C-27.575 43.948 -30.537 43.974 -33.5 44 C-34.533 44.017 -35.565 44.034 -36.629 44.051 C-37.122 44.054 -37.122 44.054 -39.617 44.07 C-40.073 44.076 -40.073 44.076 -42.378 44.102 C-44.625 43.875 -44.625 43.875 -46.625 41.875 C-47.187 35.694 -47.187 35.694 -45.466 33.184 C-42.901 31.36 -40.993 31.443 -37.863 31.363 C-36.745 31.328 -35.627 31.292 -34.475 31.256 C-33.307 31.233 -32.14 31.211 -30.938 31.188 C-30.348 31.17 -30.348 31.17 -27.365 31.084 C-24.452 31.001 -21.539 30.932 -18.625 30.875 C-16.559 26.365 -14.574 21.849 -12.844 17.199 C-12.559 16.434 -12.274 15.669 -11.98 14.881 C-11.404 13.318 -10.834 11.753 -10.27 10.186 C-6.362 -0.219 -6.362 -0.219 0 0 Z " fill="currentColor" transform="translate(822.625,339.125)"/>
<path d="M0 0 C3.347 2.421 4.76 3.874 5.625 7.938 C4.759 12.182 3.182 14.088 0 17 C-3.5 18.125 -3.5 18.125 -7 18 C-9.875 16.5 -9.875 16.5 -12 14 C-13.149 10.051 -13.431 7.97 -11.75 4.188 C-8.26 -0.175 -5.39 -0.651 0 0 Z " fill="currentColor" transform="translate(761,370)"/>
<path d="M0 0 C1.875 1 1.875 1 3 3 C3.921 10.237 1.512 16.271 -1 23 C-0.527 22.636 -0.054 22.273 0.434 21.898 C20.537 6.615 20.537 6.615 33 8 C38.89 9.938 42.54 12.911 46 18 C49.769 26.077 48.259 33.841 45.328 41.941 C39.588 55.161 30.624 64.359 17.434 70.121 C10.796 72.518 5.557 72.223 -1 70 C-3 68.812 -3 68.812 -4 67 C-4.438 63.5 -4.438 63.5 -4 60 C-1.907 57.921 -0.666 57.054 2.297 56.812 C3.106 56.874 3.916 56.936 4.75 57 C12.273 57.199 17.785 54.961 23.332 49.871 C27.94 44.702 33.187 37.047 32.922 29.895 C32.331 24.331 32.331 24.331 31 23 C23.432 22.037 19.035 24.579 13 29 C-4.381 42.483 -12.998 60.668 -19.562 81.062 C-20.039 82.513 -20.516 83.963 -20.994 85.413 C-23.964 94.483 -26.757 103.596 -29.074 112.858 C-30.218 117.208 -31.141 120.294 -35 123 C-41.214 122.786 -41.214 122.786 -44 120 C-45.121 116.273 -44.953 113.804 -43.834 110.11 C-43.555 109.168 -43.275 108.226 -42.987 107.255 C-42.831 106.75 -42.831 106.75 -42.039 104.195 C-41.719 103.134 -41.4 102.073 -41.07 100.979 C-40.061 97.648 -39.034 94.323 -38 91 C-37.687 89.988 -37.373 88.977 -37.051 87.934 C-34.866 80.902 -32.629 73.886 -30.375 66.875 C-30.034 65.811 -29.692 64.748 -29.34 63.652 C-24.822 49.588 -20.257 35.54 -15.526 21.546 C-14.971 19.901 -14.418 18.256 -13.868 16.609 C-13.113 14.352 -12.345 12.099 -11.574 9.848 C-11.465 9.519 -11.465 9.519 -10.913 7.857 C-8.734 1.589 -6.894 -0.862 0 0 Z " fill="currentColor" transform="translate(285,390)"/>
<path d="M0 0 C3.662 1.731 5.462 3.283 7.875 6.5 C11.442 17.597 8.083 28.753 3.073 38.872 C-5.054 54.139 -16.18 67.49 -28 80 C-29.88 82.093 -31.735 84.201 -33.562 86.34 C-34.803 87.773 -36.115 89.143 -37.438 90.5 C-39.614 93.983 -39.615 97.062 -39 101 C-37.938 104.438 -37.938 104.438 -36 107 C-31.703 108.516 -29.52 108.191 -25.25 106.625 C-13.28 99.844 -3.605 89.179 4.625 78.312 C11.927 68.783 20.112 60.27 32.527 58.496 C42.278 58.168 49.825 60.179 57.438 66.312 C60.936 69.627 62.786 72.319 64 77 C63.128 80.923 62.396 81.736 59 84 C56.312 84.188 56.312 84.188 53 83 C50.77 80.791 48.796 78.479 46.832 76.031 C44.708 73.676 43.141 73.137 40.02 72.762 C32.294 72.502 27.097 74.868 21.375 80 C15.782 85.939 11.812 93.867 11 102 C11.938 104.375 11.938 104.375 13 106 C21.556 105.053 27.604 99.609 33.355 93.543 C33.921 92.948 34.486 92.354 35.068 91.741 C36.173 90.556 37.258 89.353 38.321 88.13 C39.859 86.465 39.859 86.465 43 84 C46.895 83.873 48.935 84.075 51.902 86.652 C53.325 89.696 53.444 92.212 53.562 95.562 C53.792 101.688 53.792 101.688 56 105 C60.681 105.86 63.536 104.977 67.438 102.5 C80.796 92.717 90.361 78.373 97.402 63.539 C99.267 60.575 100.808 59.4 104 58 C109.2 59.2 109.2 59.2 111 61 C111.771 67.671 109.383 72.519 106.625 78.5 C100.119 92.873 100.119 92.873 99.375 100.938 C99.338 101.324 99.338 101.324 99.148 103.277 C99.099 103.846 99.05 104.414 99 105 C109.524 103.996 117.179 93.245 123.689 85.597 C130.288 77.557 136.227 68.997 141.562 60.074 C143 58 143 58 146 56 C149.12 55.675 151.147 55.488 153.875 57.125 C155.516 59.86 155.209 61.832 155 65 C154.3 67.342 153.493 69.653 152.625 71.938 C149.369 80.732 146.487 89.634 143.625 98.562 C143.167 99.988 142.71 101.413 142.252 102.838 C141.166 106.224 140.082 109.612 139 113 C139.99 112.67 140.98 112.34 142 112 C148.17 111.559 148.17 111.559 151 113.062 C152 115 152 115 152.188 118.438 C150.924 122.229 150.794 122.547 147.5 124.25 C145.303 125.204 143.199 125.958 140.854 126.455 C134.769 127.948 134.769 127.948 132.654 130.842 C131.578 133.236 130.735 135.624 129.938 138.125 C129.286 139.939 128.629 141.752 127.969 143.562 C127.645 144.474 127.322 145.385 126.988 146.324 C121.478 161.242 113.747 177.059 100 185.938 C93.378 188.283 88.569 188.501 82.043 186.008 C77.662 183.847 75.521 180.902 73.125 176.75 C70.922 169.408 72.651 163.326 76.223 156.68 C85.935 142.037 101.341 129.898 117.188 122.5 C121.548 120.181 122.787 117.169 124.293 112.582 C124.526 111.73 124.76 110.878 125 110 C125.223 109.199 125.446 108.399 125.676 107.574 C126.158 105.726 126.586 103.864 127 102 C126.466 102.568 125.933 103.137 125.383 103.723 C118.216 111.15 110.937 118.479 100.32 119.977 C95.914 120.021 92.74 118.619 89.531 115.633 C86.878 112.656 85.382 109.69 84 106 C83.466 106.519 82.933 107.039 82.383 107.574 C75.06 114.428 67.344 120 57 120 C50.785 118.98 47.025 116.698 43.094 111.816 C41.93 109.884 41.426 108.205 41 106 C40.178 106.675 39.355 107.351 38.508 108.047 C29.906 114.979 21.918 120.971 10.32 120.371 C6.522 119.764 3.785 118.693 1 116 C-0.952 113.121 -2.538 110.153 -4 107 C-4.208 107.212 -4.208 107.212 -5.258 108.285 C-12.866 115.528 -22.126 121.287 -32.812 121.812 C-39.099 121.422 -43.589 119.525 -48 115 C-54.972 104.688 -54.073 91.466 -51.875 79.688 C-51.286 77.108 -50.67 74.557 -50 72 C-49.807 71.249 -49.613 70.498 -49.414 69.724 C-45.936 56.514 -41.004 44.254 -35 32 C-34.826 31.642 -34.826 31.642 -33.944 29.83 C-27.015 15.755 -17.835 -1.945 0 0 Z M-11 17 C-12.826 19.302 -14.358 21.736 -15.875 24.25 C-16.301 24.947 -16.728 25.645 -17.167 26.364 C-23.463 36.879 -28.41 47.918 -32.562 59.438 C-32.694 59.802 -32.694 59.802 -33.362 61.644 C-33.972 63.409 -34.494 65.203 -35 67 C-34.67 67.66 -34.34 68.32 -34 69 C-6.304 36.355 -6.304 36.355 -3 18 C-3.375 14.562 -3.375 14.562 -4 12 C-6.57 12 -9.209 15.258 -11 17 Z M114 138 C89.267 156.221 89.267 156.221 86 168 C86.539 172.539 86.539 172.539 88 174 C92.072 174.679 93.783 174.135 97.312 171.938 C105.4 164.352 112.013 151.506 115 141 C114.67 140.01 114.34 139.02 114 138 Z " fill="currentColor" transform="translate(396,339)"/>
<path d="M0 0 C2.938 0.438 2.938 0.438 4.812 1.5 C6.575 4.535 6.476 7.078 5.938 10.438 C4.755 14.823 3.387 19.133 1.938 23.438 C2.701 22.468 3.464 21.499 4.25 20.5 C10.059 13.725 18.243 5.658 27.316 4.004 C27.677 4.003 27.677 4.003 29.5 4 C29.862 3.99 29.862 3.99 31.691 3.941 C35.009 4.674 36.535 6.035 38.938 8.438 C40.493 10.961 41.661 13.585 42.812 16.312 C43.132 17.007 43.452 17.702 43.781 18.418 C45.655 22.745 46.51 25.776 44.938 30.438 C41.938 32.438 41.938 32.438 38.562 32.562 C34.046 31.161 33.134 29.516 30.883 25.543 C29.972 23.514 29.396 21.609 28.938 19.438 C11.814 24.765 -0.389 45.837 -9.062 60.438 C-9.581 61.531 -10.099 62.624 -10.633 63.75 C-12.062 66.438 -12.062 66.438 -14.938 67.938 C-18.45 68.499 -20.001 68.187 -23.062 66.438 C-26.463 59.636 -22.781 51.225 -20.625 44.562 C-20.27 43.441 -19.914 42.32 -19.548 41.166 C-18.403 37.584 -17.235 34.01 -16.062 30.438 C-15.667 29.222 -15.272 28.006 -14.865 26.754 C-13.698 23.184 -12.51 19.622 -11.312 16.062 C-10.948 14.958 -10.584 13.853 -10.209 12.715 C-9.857 11.688 -9.504 10.66 -9.141 9.602 C-8.835 8.699 -8.53 7.796 -8.216 6.866 C-6.312 2.857 -4.455 0.636 0 0 Z " fill="currentColor" transform="translate(680.0625,393.5625)"/>
<path d="M0 0 C2.136 3.204 2.194 4.051 1.559 7.684 C0.309 12.865 -1.361 17.931 -3 23 C-2.599 22.515 -2.198 22.031 -1.785 21.531 C12.958 4.147 12.958 4.147 23.137 2.695 C26.948 2.569 29.823 2.906 33 5 C34.379 7.137 34.379 7.137 35.562 9.688 C35.771 10.135 35.771 10.135 36.828 12.402 C37.215 13.26 37.602 14.117 38 15 C38.325 15.661 38.65 16.323 38.984 17.004 C40.776 20.782 41.663 23.836 41 28 C38.958 30.269 37.52 30.88 34.562 31.562 C30.72 30.719 29.058 28.14 27 25 C25.942 23.03 24.922 21.037 24 19 C14.165 20.133 5.888 31.679 0 39 C-5.77 46.79 -11.128 54.883 -15.977 63.277 C-17 65 -17 65 -18 66 C-21.808 66.359 -24.177 66.494 -27.5 64.5 C-29.68 60.866 -28.872 57.936 -28 54 C-27.826 53.169 -27.652 52.337 -27.473 51.48 C-27.005 49.314 -26.514 47.156 -26 45 C-26.499 45.485 -26.998 45.969 -27.512 46.469 C-41.532 59.558 -57.936 67.413 -77.297 67.148 C-84.337 66.762 -90.684 64.795 -96 60 C-101.657 52.782 -102.052 44.853 -101 36 C-98.373 23.663 -89.972 13.4 -80 6 C-71.693 0.827 -62.456 -1.546 -52.758 0.465 C-47.58 2.116 -45.099 4.587 -42 9 C-40.397 12.205 -40.653 15.514 -41 19 C-44.349 28.457 -52.199 34.799 -61 39 C-68.099 41.771 -75.13 44.177 -82.812 44.062 C-83.603 44.053 -84.393 44.044 -85.207 44.035 C-85.799 44.024 -86.39 44.012 -87 44 C-86.608 45.114 -86.216 46.228 -85.812 47.375 C-85.592 48.001 -85.372 48.628 -85.145 49.273 C-83.496 51.76 -81.823 52.167 -79 53 C-64.58 54.987 -50.537 48.138 -39.247 39.688 C-35.351 36.616 -31.658 33.35 -28 30 C-27.192 29.263 -26.384 28.525 -25.551 27.766 C-18.458 21 -15.499 14.058 -12.344 4.891 C-9.522 -1.18 -6.261 -1.623 0 0 Z M-81 25 C-82.55 27.622 -83.772 30.201 -85 33 C-74.376 32.469 -65.437 28.876 -57.426 21.844 C-55.655 19.554 -55.201 17.875 -55 15 C-57 13 -57 13 -60 12.562 C-68.4 12.843 -76.041 18.555 -81 25 Z " fill="currentColor" transform="translate(918,395)"/>
<path d="M0 0 C2.898 1.22 3.762 2.326 5.375 5 C5.952 11.69 3.612 17.989 0.938 24 C0.584 24.81 0.231 25.619 -0.134 26.453 C-7.28 42.468 -15.202 57.368 -29.625 68 C-35.207 69.861 -40.676 69.938 -46 67.375 C-51.476 62.42 -53.598 56.909 -55.625 50 C-56.11 50.641 -56.594 51.281 -57.094 51.941 C-69.485 67.93 -69.485 67.93 -77.957 69.406 C-83.761 69.626 -86.93 68.824 -91.25 64.898 C-96.196 58.07 -95.469 48.771 -94.304 40.806 C-92.24 29.182 -89.246 16.923 -82.625 7 C-79.542 5.458 -77.016 5.703 -73.625 6 C-71.625 7.625 -71.625 7.625 -70.625 10 C-71.115 15.077 -72.8 19.572 -74.562 24.312 C-78.295 34.675 -79.976 43.957 -80.625 55 C-66.392 48.706 -57.294 28.921 -49.844 15.883 C-48.59 13.946 -47.4 12.475 -45.625 11 C-41.995 10.459 -40.303 10.536 -37.25 12.625 C-35.144 15.703 -35.372 17.305 -35.625 21 C-36.197 23.167 -36.846 25.314 -37.562 27.438 C-40.387 36.259 -42.267 45.878 -39.625 55 C-32.843 53.813 -29.543 49.245 -25.625 44 C-18.03 33.013 -12.494 21.243 -9.062 8.312 C-8.137 5.064 -7.577 3.945 -5.25 1.312 C-2.625 0 -2.625 0 0 0 Z " fill="currentColor" transform="translate(652.625,391)"/>
</svg>
