<svg width="1200" height="630" viewBox="0 0 1200 630" xmlns="http://www.w3.org/2000/svg"><mask id="satori_om-id"><rect x="0" y="0" width="1200" height="630" fill="#fff"/></mask><rect x="0" y="0" width="1200" height="630" fill="#fafafa"/><clipPath id="satori_brc-id-0"><rect x="744" y="-157" width="576" height="576"/></clipPath><clipPath id="satori_cp-id-0"><rect x="744" y="-157" width="576" height="576"/></clipPath><mask id="satori_om-id-0"><rect x="744" y="-157" width="576" height="576" fill="#fff"/></mask><g opacity="0.05"><image x="744" y="-157" width="576" height="576" href="data:image/svg+xml;utf8,%3Csvg  xmlns=%22http://www.w3.org/2000/svg%22 width=%2225.398058252427184%22 height=%2224%22 viewBox=%220 0 327 309%22%3E%3Cpath fill=%22%231F1F1F%22 d=%22M311.63,154.67 L311.63,139.84 L190.93,146.79 C186.72,147.02 183.12,143.79 182.89,139.59 C182.79,137.72 183.36,135.98 184.4,134.59 L250.52,33.92 L224.82,19.08 L170.48,127.1 C168.58,130.86 163.99,132.38 160.23,130.48 C158.69,129.7 157.53,128.48 156.82,127.05 L102.51,19.08 L76.81,33.92 L143.19,134.98 C145.5,138.5 144.52,143.22 141.01,145.54 C139.59,146.47 137.98,146.87 136.4,146.78 L136.4,146.8 L15.7,139.85 L15.7,169.51 L136.4,162.56 C140.61,162.33 144.21,165.55 144.44,169.76 C144.54,171.62 143.96,173.37 142.93,174.76 L76.81,275.43 L89.68,282.86 L89.69,282.85 L102.53,290.26 L156.86,182.25 C158.76,178.49 163.35,176.97 167.11,178.87 C168.65,179.65 169.81,180.87 170.52,182.3 L224.83,290.26 L237.66,282.85 L238.09,282.62 L250.53,275.43 L184.16,174.37 C181.85,170.85 182.83,166.13 186.34,163.82 C187.76,162.89 189.37,162.49 190.94,162.58 L190.94,162.57 L311.64,169.52 L311.64,154.69 L311.63,154.67 Z M326.94,131.75 L326.94,177.59 L326.92,177.59 L326.91,178.01 C326.68,182.22 323.08,185.44 318.87,185.21 L205.21,178.67 L267.68,273.78 L267.93,274.19 C270.02,277.84 268.77,282.5 265.12,284.6 L245.69,295.81 L245.3,296.05 L225.45,307.51 L225.06,307.72 C221.3,309.62 216.71,308.11 214.81,304.34 L163.66,202.66 L112.59,304.19 C112.5,304.37 112.41,304.55 112.31,304.73 C110.2,308.38 105.52,309.62 101.88,307.51 L82.03,296.05 L82.04,296.04 L62.21,284.6 L61.82,284.36 C58.3,282.05 57.33,277.32 59.64,273.8 L122.12,178.67 L9.03,185.18 C8.71,185.22 8.38,185.24 8.05,185.24 C3.82,185.24 0.4,181.81 0.4,177.59 L0.4,131.75 L0.42,131.75 L0.43,131.33 C0.66,127.12 4.26,123.89 8.47,124.13 L122.13,130.68 L59.66,35.57 L59.41,35.16 C57.32,31.51 58.57,26.85 62.22,24.76 L101.51,2.07 C101.75,1.91 102.01,1.76 102.28,1.63 C106.04,-0.27 110.64,1.24 112.54,5.01 L163.69,106.69 L214.84,5.01 L214.85,5.02 L215.05,4.65 C217.14,1 221.8,-0.26 225.45,1.84 L265.15,24.76 L265.54,25 C269.06,27.31 270.03,32.04 267.72,35.55 L205.24,130.68 L318.33,124.16 C318.65,124.12 318.98,124.1 319.31,124.1 C323.54,124.1 326.96,127.53 326.96,131.75 L326.94,131.75 Z%22%3E%3C/path%3E%3C/svg%3E" preserveAspectRatio="none" transform="matrix(0.98,0.21,-0.21,0.98,49.79,-211.70)" clip-path="url(#satori_brc-id-0)"/></g><mask id="satori_om-id-0-0"><rect x="744" y="-157" width="0" height="576" fill="#fff"/></mask><g opacity="0.05"></g><defs><pattern id="satori_pattern_id-1_0" x="0" y="0" width="1" height="1" patternUnits="objectBoundingBox"><linearGradient id="satori_biid-1_0" x1="0" y1="0" x2="0" y2="1" spreadMethod="pad"><stop offset="0%" stop-color="transparent"/><stop offset="60%" stop-color="transparent"/><stop offset="100%" stop-color="rgba(0, 0, 0, 0.05)"/></linearGradient><rect x="0" y="0" width="1200" height="630" fill="url(#satori_biid-1_0)"/></pattern></defs><mask id="satori_om-id-1"><rect x="0" y="0" width="1200" height="630" fill="#fff"/></mask><rect x="0" y="0" width="1200" height="630" fill="url(#satori_pattern_id-1_0)"/><mask id="satori_om-id-1-0"><rect x="64" y="56" width="1072" height="89" fill="#fff"/></mask><mask id="satori_om-id-1-0-0"><rect x="64" y="72" width="538" height="57" fill="#fff"/></mask><g  ><path fill="#1F1F1F" d="M83.4 120L76.3 120L76.3 87.5L64.6 87.5L64.6 81.4L95.1 81.4L95.1 87.5L83.4 87.5L83.4 120ZM107.8 120.7L107.8 120.7Q103.4 120.7 100.2 118.8Q97.0 116.9 95.3 113.5Q93.5 110.0 93.5 105.5L93.5 105.5Q93.5 100.9 95.3 97.5Q97.0 94.1 100.2 92.2Q103.4 90.3 107.6 90.3L107.6 90.3Q111.8 90.3 114.9 92.1Q118.0 94.0 119.7 97.5Q121.4 101.0 121.4 105.9L121.4 105.9L121.4 107.4L100.8 107.4Q101.0 111.2 102.9 113.2Q104.7 115.1 107.8 115.1L107.8 115.1Q110.2 115.1 111.7 114.0Q113.3 113.0 113.9 111.1L113.9 111.1L121.0 111.5Q119.8 115.8 116.3 118.2Q112.8 120.7 107.8 120.7ZM100.8 102.8L100.8 102.8L114.2 102.8Q114.0 99.2 112.2 97.5Q110.4 95.8 107.6 95.8L107.6 95.8Q104.9 95.8 103.0 97.6Q101.2 99.4 100.8 102.8ZM138.6 120.7L138.6 120.7Q134.3 120.7 131.4 119.4Q128.5 118.2 126.9 115.9Q125.4 113.7 125.1 110.9L125.1 110.9L132.3 110.5Q132.7 112.8 134.2 114.1Q135.7 115.3 138.7 115.3L138.7 115.3Q141.1 115.3 142.5 114.5Q143.9 113.7 143.9 112.1L143.9 112.1Q143.9 111.1 143.4 110.4Q142.9 109.8 141.6 109.3Q140.2 108.8 137.5 108.3L137.5 108.3Q133.1 107.5 130.5 106.4Q128.0 105.3 126.9 103.6Q125.9 101.9 125.9 99.4L125.9 99.4Q125.9 95.4 129.0 92.8Q132.1 90.3 138.1 90.3L138.1 90.3Q142.1 90.3 144.7 91.6Q147.4 92.9 148.9 95.1Q150.4 97.3 150.8 100.1L150.8 100.1L143.8 100.4Q143.5 98.9 142.8 97.9Q142.1 96.8 140.9 96.2Q139.7 95.6 138.0 95.6L138.0 95.6Q135.6 95.6 134.3 96.6Q133.1 97.6 133.1 99.2L133.1 99.2Q133.1 100.4 133.7 101.1Q134.2 101.9 135.5 102.3Q136.8 102.8 139.0 103.2L139.0 103.2Q143.6 103.9 146.2 105.0Q148.9 106.1 150.0 107.8Q151.1 109.6 151.1 111.9L151.1 111.9Q151.1 114.7 149.5 116.7Q148.0 118.6 145.2 119.6Q142.4 120.7 138.6 120.7ZM173.4 120L167.2 120Q162.8 120 160.8 118.0Q158.8 116.0 158.8 111.7L158.8 111.7L158.8 84.2L165.7 84.2L165.7 111.0Q165.7 113.0 166.6 113.8Q167.5 114.6 169.3 114.6L169.3 114.6L173.4 114.6L173.4 120ZM173.4 96.3L154.2 96.3L154.2 91.0L173.4 91.0L173.4 96.3Z M211.8 120L198.6 120L198.6 81.4L211.4 81.4Q220.7 81.4 225.6 86.4Q230.6 91.4 230.6 100.7L230.6 100.7Q230.6 110.0 225.7 115.0Q220.8 120 211.8 120L211.8 120ZM205.7 87.5L205.7 113.9L211.4 113.9Q217.5 113.9 220.4 110.6Q223.3 107.3 223.3 100.7L223.3 100.7Q223.3 94.1 220.4 90.8Q217.5 87.5 211.4 87.5L211.4 87.5L205.7 87.5ZM249.9 120.7L249.9 120.7Q245.6 120.7 242.4 118.8Q239.1 116.9 237.3 113.5Q235.6 110.0 235.6 105.5L235.6 105.5Q235.6 100.9 237.3 97.5Q239.1 94.1 242.4 92.2Q245.6 90.3 249.9 90.3L249.9 90.3Q254.2 90.3 257.4 92.2Q260.6 94.1 262.4 97.5Q264.1 100.9 264.1 105.5L264.1 105.5Q264.1 110.0 262.4 113.5Q260.6 116.9 257.4 118.8Q254.2 120.7 249.9 120.7ZM249.9 115.0L249.9 115.0Q253.3 115.0 255.1 112.5Q256.9 110.0 256.9 105.5L256.9 105.5Q256.9 101.0 255.1 98.5Q253.3 96.0 249.9 96.0L249.9 96.0Q246.5 96.0 244.7 98.5Q242.8 101.0 242.8 105.5L242.8 105.5Q242.8 110.0 244.7 112.5Q246.5 115.0 249.9 115.0ZM282.1 120.7L282.1 120.7Q277.8 120.7 274.6 118.8Q271.4 116.9 269.6 113.5Q267.8 110.0 267.8 105.5L267.8 105.5Q267.8 100.9 269.6 97.5Q271.4 94.1 274.6 92.2Q277.8 90.3 282.1 90.3L282.1 90.3Q285.8 90.3 288.7 91.6Q291.6 92.9 293.4 95.3Q295.3 97.8 295.7 101.2L295.7 101.2L288.5 101.6Q288.1 98.8 286.4 97.4Q284.6 96.0 282.1 96.0L282.1 96.0Q278.8 96.0 276.9 98.5Q275.1 101.0 275.1 105.5L275.1 105.5Q275.1 110.0 276.9 112.5Q278.8 115.0 282.1 115.0L282.1 115.0Q284.7 115.0 286.4 113.5Q288.1 112.1 288.5 109.0L288.5 109.0L295.7 109.3Q295.3 112.8 293.5 115.3Q291.7 117.9 288.8 119.3Q285.9 120.7 282.1 120.7ZM310.1 120.7L310.1 120.7Q305.7 120.7 303.1 117.7Q300.5 114.8 300.5 109.7L300.5 109.7L300.5 91.0L307.5 91.0L307.5 107.9Q307.5 111.6 308.7 113.3Q309.9 115.0 312.4 115.0L312.4 115.0Q315.3 115.0 316.8 113.1Q318.4 111.2 318.4 107.7L318.4 107.7L318.4 91.0L325.3 91.0L325.3 120L319.0 120L318.8 112.0L319.7 112.3Q319.0 116.4 316.6 118.5Q314.1 120.7 310.1 120.7ZM340.0 120L333.0 120L333.0 91.0L339.3 91.0L339.5 98.1L338.9 97.8Q339.4 95.4 340.6 93.8Q341.8 92.1 343.6 91.2Q345.4 90.3 347.5 90.3L347.5 90.3Q351.2 90.3 353.5 92.4Q355.7 94.5 356.3 98.1L356.3 98.1L355.4 98.1Q355.9 95.6 357.1 93.9Q358.3 92.1 360.1 91.2Q361.9 90.3 364.2 90.3L364.2 90.3Q367.2 90.3 369.4 91.6Q371.6 92.9 372.7 95.3Q373.9 97.8 373.9 101.3L373.9 101.3L373.9 120L367.0 120L367.0 103.1Q367.0 99.5 365.7 97.8Q364.5 96.0 362.0 96.0L362.0 96.0Q360.3 96.0 359.1 96.8Q357.9 97.7 357.3 99.4Q356.7 101.0 356.7 103.4L356.7 103.4L356.7 120L350.2 120L350.2 103.4Q350.2 99.8 349.1 97.9Q348.0 96.0 345.4 96.0L345.4 96.0Q343.7 96.0 342.5 96.8Q341.3 97.7 340.7 99.4Q340.0 101.0 340.0 103.4L340.0 103.4L340.0 120ZM393.4 120.7L393.4 120.7Q389.0 120.7 385.8 118.8Q382.6 116.9 380.9 113.5Q379.1 110.0 379.1 105.5L379.1 105.5Q379.1 100.9 380.9 97.5Q382.6 94.1 385.8 92.2Q389.0 90.3 393.2 90.3L393.2 90.3Q397.4 90.3 400.5 92.1Q403.6 94.0 405.3 97.5Q407.0 101.0 407.0 105.9L407.0 105.9L407.0 107.4L386.4 107.4Q386.6 111.2 388.5 113.2Q390.3 115.1 393.4 115.1L393.4 115.1Q395.8 115.1 397.3 114.0Q398.9 113.0 399.5 111.1L399.5 111.1L406.6 111.5Q405.4 115.8 401.9 118.2Q398.4 120.7 393.4 120.7ZM386.4 102.8L386.4 102.8L399.8 102.8Q399.6 99.2 397.8 97.5Q396.0 95.8 393.2 95.8L393.2 95.8Q390.5 95.8 388.6 97.6Q386.8 99.4 386.4 102.8ZM419.4 120L412.4 120L412.4 91.0L418.7 91.0L419.0 99.1L418.2 98.8Q418.6 95.7 420.0 93.9Q421.4 92.0 423.3 91.2Q425.3 90.3 427.6 90.3L427.6 90.3Q430.8 90.3 433.0 91.7Q435.2 93.1 436.4 95.6Q437.5 98.1 437.5 101.3L437.5 101.3L437.5 120L430.5 120L430.5 103.6Q430.5 101.1 430.1 99.4Q429.6 97.8 428.5 96.9Q427.3 96.0 425.5 96.0L425.5 96.0Q422.7 96.0 421.1 97.9Q419.4 99.9 419.4 103.6L419.4 103.6L419.4 120ZM461.0 120L454.8 120Q450.4 120 448.4 118.0Q446.3 116.0 446.3 111.7L446.3 111.7L446.3 84.2L453.3 84.2L453.3 111.0Q453.3 113.0 454.2 113.8Q455.0 114.6 456.9 114.6L456.9 114.6L461.0 114.6L461.0 120ZM461.0 96.3L441.8 96.3L441.8 91.0L461.0 91.0L461.0 96.3ZM474.3 120.7L474.3 120.7Q469.8 120.7 467.0 118.6Q464.2 116.5 464.2 112.7L464.2 112.7Q464.2 109.0 466.6 106.8Q468.9 104.7 473.7 103.8L473.7 103.8L483.3 101.9Q483.3 98.8 481.9 97.2Q480.5 95.7 477.7 95.7L477.7 95.7Q475.2 95.7 473.8 96.9Q472.3 98.0 471.8 100.2L471.8 100.2L464.7 99.9Q465.6 95.2 469.0 92.8Q472.3 90.3 477.7 90.3L477.7 90.3Q483.9 90.3 487.1 93.4Q490.3 96.6 490.3 102.4L490.3 102.4L490.3 112.9Q490.3 114.1 490.7 114.5Q491.1 114.9 491.9 114.9L491.9 114.9L492.8 114.9L492.8 120Q492.5 120.1 491.8 120.2Q491.0 120.2 490.3 120.2L490.3 120.2Q488.5 120.2 487.1 119.6Q485.7 119.1 484.9 117.6Q484.1 116.2 484.1 113.7L484.1 113.7L484.7 114.1Q484.3 116.0 482.9 117.5Q481.4 119.0 479.2 119.8Q477.1 120.7 474.3 120.7ZM475.8 115.6L475.8 115.6Q478.1 115.6 479.8 114.7Q481.5 113.7 482.4 112.1Q483.3 110.5 483.3 108.2L483.3 108.2L483.3 106.6L475.8 108.1Q473.5 108.6 472.5 109.6Q471.5 110.5 471.5 112.1L471.5 112.1Q471.5 113.7 472.6 114.7Q473.7 115.6 475.8 115.6ZM513.7 120L507.5 120Q503.2 120 501.1 118.0Q499.1 116.0 499.1 111.7L499.1 111.7L499.1 84.2L506.1 84.2L506.1 111.0Q506.1 113.0 506.9 113.8Q507.8 114.6 509.6 114.6L509.6 114.6L513.7 114.6L513.7 120ZM513.7 96.3L494.5 96.3L494.5 91.0L513.7 91.0L513.7 96.3ZM525.8 120L518.8 120L518.8 91.0L525.8 91.0L525.8 120ZM526.0 87.1L518.7 87.1L518.7 80.9L526.0 80.9L526.0 87.1ZM545.5 120.7L545.5 120.7Q541.3 120.7 538.0 118.8Q534.8 116.9 533.0 113.5Q531.2 110.0 531.2 105.5L531.2 105.5Q531.2 100.9 533.0 97.5Q534.8 94.1 538.0 92.2Q541.3 90.3 545.5 90.3L545.5 90.3Q549.8 90.3 553.1 92.2Q556.3 94.1 558.0 97.5Q559.8 100.9 559.8 105.5L559.8 105.5Q559.8 110.0 558.0 113.5Q556.3 116.9 553.1 118.8Q549.8 120.7 545.5 120.7ZM545.5 115.0L545.5 115.0Q548.9 115.0 550.7 112.5Q552.6 110.0 552.6 105.5L552.6 105.5Q552.6 101.0 550.7 98.5Q548.9 96.0 545.5 96.0L545.5 96.0Q542.2 96.0 540.3 98.5Q538.5 101.0 538.5 105.5L538.5 105.5Q538.5 110.0 540.3 112.5Q542.2 115.0 545.5 115.0ZM572.2 120L565.2 120L565.2 91.0L571.5 91.0L571.8 99.1L571.0 98.8Q571.4 95.7 572.7 93.9Q574.1 92.0 576.1 91.2Q578.0 90.3 580.4 90.3L580.4 90.3Q583.6 90.3 585.8 91.7Q588.0 93.1 589.1 95.6Q590.3 98.1 590.3 101.3L590.3 101.3L590.3 120L583.3 120L583.3 103.6Q583.3 101.1 582.8 99.4Q582.3 97.8 581.2 96.9Q580.1 96.0 578.2 96.0L578.2 96.0Q575.5 96.0 573.8 97.9Q572.2 99.9 572.2 103.6L572.2 103.6L572.2 120Z "/></g><mask id="satori_om-id-1-1"><rect x="64" y="177" width="1072" height="180" fill="#fff"/></mask><g opacity="0.75"></g><g  ><path fill="#1F1F1F" d="M78.3 223L74.4 223L74.4 195.0L64.5 195.0L64.5 191.2L88.2 191.2L88.2 195.0L78.3 195.0L78.3 223ZM94.1 223L90.3 223L90.3 191.2L94.1 191.2L94.1 204.5L93.6 204.4Q94.1 202.4 95.1 201.2Q96.2 199.9 97.8 199.3Q99.3 198.7 101.2 198.7L101.2 198.7Q103.8 198.7 105.6 199.9Q107.3 201.0 108.2 203.0Q109.2 205.1 109.2 207.7L109.2 207.7L109.2 223L105.4 223L105.4 208.8Q105.4 205.3 104.2 203.7Q102.9 202.0 100.4 202.0L100.4 202.0Q97.6 202.0 95.8 203.8Q94.1 205.5 94.1 208.8L94.1 208.8L94.1 223ZM119.0 223L115.2 223L115.2 199.3L119.0 199.3L119.0 223ZM119.1 195.5L115.1 195.5L115.1 191.1L119.1 191.1L119.1 195.5ZM133.7 223.5L133.7 223.5Q130.5 223.5 128.3 222.5Q126.0 221.5 124.8 219.7Q123.6 217.8 123.4 215.5L123.4 215.5L127.3 215.2Q127.7 217.4 129.2 218.7Q130.7 220.0 133.7 220.0L133.7 220.0Q136.1 220.0 137.5 219.2Q139.0 218.4 139.0 216.6L139.0 216.6Q139.0 215.7 138.5 215.1Q138.1 214.4 136.8 214.0Q135.5 213.5 132.9 213.1L132.9 213.1Q129.5 212.4 127.6 211.5Q125.6 210.6 124.8 209.2Q124.0 207.9 124.0 206.0L124.0 206.0Q124.0 202.8 126.3 200.8Q128.6 198.7 132.9 198.7L132.9 198.7Q135.9 198.7 137.9 199.8Q139.8 200.8 141.0 202.5Q142.1 204.3 142.5 206.3L142.5 206.3L138.5 206.6Q138.3 205.3 137.6 204.4Q136.8 203.4 135.7 202.9Q134.5 202.3 132.9 202.3L132.9 202.3Q130.3 202.3 129.1 203.3Q127.9 204.3 127.9 205.8L127.9 205.8Q127.9 207.0 128.5 207.7Q129.0 208.4 130.3 208.9Q131.6 209.4 133.7 209.7L133.7 209.7Q137.3 210.4 139.3 211.3Q141.3 212.2 142.1 213.5Q142.9 214.8 142.9 216.6L142.9 216.6Q142.9 218.8 141.7 220.4Q140.5 221.9 138.4 222.7Q136.3 223.5 133.7 223.5Z M164.3 223L160.6 223L160.6 199.3L164.3 199.3L164.3 223ZM164.4 195.5L160.5 195.5L160.5 191.1L164.4 191.1L164.4 195.5ZM179.0 223.5L179.0 223.5Q175.9 223.5 173.6 222.5Q171.4 221.5 170.2 219.7Q169.0 217.8 168.8 215.5L168.8 215.5L172.7 215.2Q173.1 217.4 174.6 218.7Q176.0 220.0 179.0 220.0L179.0 220.0Q181.5 220.0 182.9 219.2Q184.4 218.4 184.4 216.6L184.4 216.6Q184.4 215.7 183.9 215.1Q183.5 214.4 182.2 214.0Q180.9 213.5 178.3 213.1L178.3 213.1Q174.9 212.4 173.0 211.5Q171.0 210.6 170.2 209.2Q169.4 207.9 169.4 206.0L169.4 206.0Q169.4 202.8 171.7 200.8Q174.0 198.7 178.3 198.7L178.3 198.7Q181.2 198.7 183.2 199.8Q185.2 200.8 186.4 202.5Q187.5 204.3 187.9 206.3L187.9 206.3L183.9 206.6Q183.7 205.3 182.9 204.4Q182.2 203.4 181.1 202.9Q179.9 202.3 178.3 202.3L178.3 202.3Q175.7 202.3 174.5 203.3Q173.3 204.3 173.3 205.8L173.3 205.8Q173.3 207.0 173.9 207.7Q174.4 208.4 175.7 208.9Q176.9 209.4 179.0 209.7L179.0 209.7Q182.7 210.4 184.7 211.3Q186.7 212.2 187.5 213.5Q188.3 214.8 188.3 216.6L188.3 216.6Q188.3 218.8 187.1 220.4Q185.9 221.9 183.8 222.7Q181.7 223.5 179.0 223.5Z M211.0 223.5L211.0 223.5Q207.3 223.5 205.1 221.8Q203.0 220.1 203.0 217.1L203.0 217.1Q203.0 214.0 204.8 212.3Q206.6 210.5 210.5 209.8L210.5 209.8L218.9 208.3Q218.9 205.3 217.5 203.8Q216.1 202.3 213.2 202.3L213.2 202.3Q210.8 202.3 209.3 203.4Q207.9 204.5 207.4 206.6L207.4 206.6L203.4 206.2Q204.0 202.9 206.6 200.8Q209.2 198.7 213.2 198.7L213.2 198.7Q217.8 198.7 220.2 201.3Q222.6 203.9 222.6 208.4L222.6 208.4L222.6 218.2Q222.6 219.0 222.9 219.3Q223.2 219.7 223.9 219.7L223.9 219.7L224.8 219.7L224.8 223Q224.7 223.0 224.3 223.1Q223.8 223.1 223.4 223.1L223.4 223.1Q221.8 223.1 220.8 222.6Q219.8 222.1 219.3 221.0Q218.9 219.9 218.9 218.1L218.9 218.1L219.3 218.2Q219.0 219.7 217.8 220.9Q216.6 222.1 214.8 222.8Q213.0 223.5 211.0 223.5ZM211.3 220.2L211.3 220.2Q213.7 220.2 215.4 219.3Q217.1 218.4 218.0 216.8Q218.9 215.2 218.9 213.2L218.9 213.2L218.9 211.5L211.2 213.0Q208.8 213.4 207.8 214.3Q206.9 215.2 206.9 216.7L206.9 216.7Q206.9 218.4 208.1 219.3Q209.3 220.2 211.3 220.2Z M251.0 223L247.3 223Q244.0 223 242.5 221.5Q241.0 220.0 241.0 216.9L241.0 216.9L241.0 193.7L244.7 193.7L244.7 216.8Q244.7 218.4 245.4 219.1Q246.2 219.7 247.6 219.7L247.6 219.7L251.0 219.7L251.0 223ZM251.0 202.6L237.5 202.6L237.5 199.3L251.0 199.3L251.0 202.6ZM264.0 223.5L264.0 223.5Q260.7 223.5 258.2 222.0Q255.8 220.5 254.5 217.7Q253.1 214.9 253.1 211.1L253.1 211.1Q253.1 207.4 254.5 204.6Q255.8 201.8 258.2 200.3Q260.6 198.7 263.9 198.7L263.9 198.7Q266.9 198.7 269.3 200.2Q271.7 201.6 273.0 204.4Q274.3 207.2 274.3 211.2L274.3 211.2L274.3 212.3L257.1 212.3Q257.3 216.1 259.1 218.0Q260.9 220.0 264.0 220.0L264.0 220.0Q266.4 220.0 267.9 218.9Q269.4 217.8 269.9 216.0L269.9 216.0L274.0 216.3Q273.0 219.5 270.4 221.5Q267.8 223.5 264.0 223.5ZM257.1 209.0L257.1 209.0L270.2 209.0Q269.9 205.5 268.2 203.9Q266.5 202.3 263.9 202.3L263.9 202.3Q261.1 202.3 259.3 204.0Q257.6 205.7 257.1 209.0ZM287.4 223.5L287.4 223.5Q284.2 223.5 282.0 222.5Q279.8 221.5 278.6 219.7Q277.3 217.8 277.2 215.5L277.2 215.5L281.1 215.2Q281.5 217.4 282.9 218.7Q284.4 220.0 287.4 220.0L287.4 220.0Q289.8 220.0 291.3 219.2Q292.7 218.4 292.7 216.6L292.7 216.6Q292.7 215.7 292.3 215.1Q291.9 214.4 290.6 214.0Q289.3 213.5 286.7 213.1L286.7 213.1Q283.3 212.4 281.3 211.5Q279.4 210.6 278.6 209.2Q277.7 207.9 277.7 206.0L277.7 206.0Q277.7 202.8 280.1 200.8Q282.4 198.7 286.7 198.7L286.7 198.7Q289.6 198.7 291.6 199.8Q293.6 200.8 294.7 202.5Q295.9 204.3 296.2 206.3L296.2 206.3L292.3 206.6Q292.0 205.3 291.3 204.4Q290.6 203.4 289.4 202.9Q288.3 202.3 286.7 202.3L286.7 202.3Q284.1 202.3 282.9 203.3Q281.7 204.3 281.7 205.8L281.7 205.8Q281.7 207.0 282.2 207.7Q282.8 208.4 284.1 208.9Q285.3 209.4 287.4 209.7L287.4 209.7Q291.0 210.4 293.1 211.3Q295.1 212.2 295.9 213.5Q296.7 214.8 296.7 216.6L296.7 216.6Q296.7 218.8 295.5 220.4Q294.2 221.9 292.1 222.7Q290.1 223.5 287.4 223.5ZM312.7 223L308.9 223Q305.7 223 304.1 221.5Q302.6 220.0 302.6 216.9L302.6 216.9L302.6 193.7L306.4 193.7L306.4 216.8Q306.4 218.4 307.1 219.1Q307.8 219.7 309.3 219.7L309.3 219.7L312.7 219.7L312.7 223ZM312.7 202.6L299.1 202.6L299.1 199.3L312.7 199.3L312.7 202.6Z M339.0 223.5L339.0 223.5Q335.9 223.5 333.7 222.0Q331.4 220.5 330.2 217.7Q329.0 214.9 329.0 211.1L329.0 211.1Q329.0 207.3 330.2 204.5Q331.4 201.8 333.7 200.2Q335.9 198.7 339.0 198.7L339.0 198.7Q341.4 198.7 343.4 199.7Q345.3 200.7 346.3 202.6L346.3 202.6L346.3 191.2L350.1 191.2L350.1 223L346.7 223L346.5 219.4Q345.5 221.3 343.5 222.4Q341.5 223.5 339.0 223.5ZM339.8 220.0L339.8 220.0Q341.9 220.0 343.3 218.9Q344.8 217.8 345.5 215.8Q346.3 213.8 346.3 211.1L346.3 211.1Q346.3 208.4 345.5 206.4Q344.8 204.4 343.3 203.4Q341.9 202.3 339.8 202.3L339.8 202.3Q336.6 202.3 334.8 204.7Q332.9 207.0 332.9 211.1L332.9 211.1Q332.9 215.2 334.8 217.6Q336.6 220.0 339.8 220.0ZM365.4 223.5L365.4 223.5Q362.0 223.5 359.6 222.0Q357.2 220.5 355.8 217.7Q354.5 214.9 354.5 211.1L354.5 211.1Q354.5 207.4 355.8 204.6Q357.2 201.8 359.5 200.3Q361.9 198.7 365.2 198.7L365.2 198.7Q368.3 198.7 370.7 200.2Q373.1 201.6 374.4 204.4Q375.7 207.2 375.7 211.2L375.7 211.2L375.7 212.3L358.4 212.3Q358.7 216.1 360.5 218.0Q362.3 220.0 365.4 220.0L365.4 220.0Q367.7 220.0 369.2 218.9Q370.7 217.8 371.3 216.0L371.3 216.0L375.3 216.3Q374.4 219.5 371.8 221.5Q369.2 223.5 365.4 223.5ZM358.4 209.0L358.4 209.0L371.6 209.0Q371.3 205.5 369.6 203.9Q367.9 202.3 365.2 202.3L365.2 202.3Q362.5 202.3 360.7 204.0Q358.9 205.7 358.4 209.0ZM388.8 223.5L388.8 223.5Q385.6 223.5 383.4 222.5Q381.2 221.5 379.9 219.7Q378.7 217.8 378.5 215.5L378.5 215.5L382.5 215.2Q382.8 217.4 384.3 218.7Q385.8 220.0 388.8 220.0L388.8 220.0Q391.2 220.0 392.7 219.2Q394.1 218.4 394.1 216.6L394.1 216.6Q394.1 215.7 393.7 215.1Q393.2 214.4 391.9 214.0Q390.6 213.5 388.1 213.1L388.1 213.1Q384.7 212.4 382.7 211.5Q380.8 210.6 379.9 209.2Q379.1 207.9 379.1 206.0L379.1 206.0Q379.1 202.8 381.4 200.8Q383.8 198.7 388.1 198.7L388.1 198.7Q391.0 198.7 393.0 199.8Q395.0 200.8 396.1 202.5Q397.2 204.3 397.6 206.3L397.6 206.3L393.7 206.6Q393.4 205.3 392.7 204.4Q392.0 203.4 390.8 202.9Q389.6 202.3 388.0 202.3L388.0 202.3Q385.5 202.3 384.3 203.3Q383.0 204.3 383.0 205.8L383.0 205.8Q383.0 207.0 383.6 207.7Q384.2 208.4 385.4 208.9Q386.7 209.4 388.8 209.7L388.8 209.7Q392.4 210.4 394.4 211.3Q396.4 212.2 397.2 213.5Q398.1 214.8 398.1 216.6L398.1 216.6Q398.1 218.8 396.8 220.4Q395.6 221.9 393.5 222.7Q391.4 223.5 388.8 223.5ZM411.8 223.5L411.8 223.5Q408.4 223.5 406.0 222.0Q403.6 220.5 402.2 217.7Q400.9 214.9 400.9 211.1L400.9 211.1Q400.9 207.4 402.2 204.6Q403.6 201.8 406.0 200.3Q408.4 198.7 411.8 198.7L411.8 198.7Q414.5 198.7 416.6 199.7Q418.8 200.6 420.1 202.5Q421.4 204.3 421.8 207.0L421.8 207.0L417.9 207.2Q417.5 204.9 415.8 203.6Q414.2 202.3 411.8 202.3L411.8 202.3Q408.5 202.3 406.7 204.7Q404.8 207.0 404.8 211.1L404.8 211.1Q404.8 215.2 406.7 217.6Q408.5 220.0 411.8 220.0L411.8 220.0Q414.2 220.0 415.8 218.6Q417.5 217.3 417.9 214.6L417.9 214.6L421.8 214.8Q421.4 217.5 420.1 219.4Q418.8 221.4 416.6 222.5Q414.5 223.5 411.8 223.5ZM429.6 223L425.8 223L425.8 199.3L429.1 199.3L429.3 205.3L429.0 205.1Q429.4 202.1 430.9 200.7Q432.4 199.3 434.9 199.3L434.9 199.3L437.3 199.3L437.3 202.8L435.0 202.8Q433.2 202.8 432.0 203.5Q430.8 204.1 430.2 205.4Q429.6 206.7 429.6 208.7L429.6 208.7L429.6 223ZM444.6 223L440.8 223L440.8 199.3L444.6 199.3L444.6 223ZM444.6 195.5L440.7 195.5L440.7 191.1L444.6 191.1L444.6 195.5ZM455.3 229.7L451.5 229.7L451.5 199.3L455.0 199.3L455.1 204.4L454.5 204.1Q455.4 201.5 457.5 200.1Q459.6 198.7 462.3 198.7L462.3 198.7Q465.9 198.7 468.1 200.5Q470.4 202.2 471.5 205.0Q472.6 207.9 472.6 211.1L472.6 211.1Q472.6 214.4 471.5 217.2Q470.4 220.0 468.1 221.8Q465.9 223.5 462.3 223.5L462.3 223.5Q460.5 223.5 458.9 222.9Q457.3 222.3 456.2 221.2Q455.1 220.0 454.7 218.5L454.7 218.5L455.3 217.9L455.3 229.7ZM462.0 220.0L462.0 220.0Q465.1 220.0 466.9 217.6Q468.7 215.3 468.7 211.1L468.7 211.1Q468.7 207.0 466.9 204.6Q465.1 202.3 462.0 202.3L462.0 202.3Q459.9 202.3 458.4 203.3Q456.9 204.3 456.1 206.2Q455.3 208.2 455.3 211.1L455.3 211.1Q455.3 214.0 456.1 216.0Q456.9 218.0 458.4 219.0Q459.9 220.0 462.0 220.0ZM488.6 223L484.8 223Q481.6 223 480.1 221.5Q478.5 220.0 478.5 216.9L478.5 216.9L478.5 193.7L482.3 193.7L482.3 216.8Q482.3 218.4 483.0 219.1Q483.7 219.7 485.2 219.7L485.2 219.7L488.6 219.7L488.6 223ZM488.6 202.6L475.0 202.6L475.0 199.3L488.6 199.3L488.6 202.6ZM496.5 223L492.8 223L492.8 199.3L496.5 199.3L496.5 223ZM496.6 195.5L492.7 195.5L492.7 191.1L496.6 191.1L496.6 195.5ZM511.8 223.5L511.8 223.5Q508.6 223.5 506.1 222.0Q503.6 220.5 502.3 217.7Q501.0 214.9 501.0 211.1L501.0 211.1Q501.0 207.3 502.3 204.5Q503.6 201.8 506.1 200.2Q508.6 198.7 511.8 198.7L511.8 198.7Q515.1 198.7 517.6 200.2Q520.0 201.8 521.3 204.5Q522.7 207.3 522.7 211.1L522.7 211.1Q522.7 214.9 521.3 217.7Q520.0 220.5 517.6 222.0Q515.1 223.5 511.8 223.5ZM511.8 220.0L511.8 220.0Q515.1 220.0 516.9 217.6Q518.7 215.2 518.7 211.1L518.7 211.1Q518.7 207.0 516.9 204.7Q515.1 202.3 511.8 202.3L511.8 202.3Q508.6 202.3 506.7 204.7Q504.9 207.0 504.9 211.1L504.9 211.1Q504.9 215.2 506.7 217.6Q508.6 220.0 511.8 220.0ZM530.9 223L527.1 223L527.1 199.3L530.6 199.3L530.7 205.3L530.3 204.9Q530.7 202.8 531.8 201.4Q532.9 200.1 534.5 199.4Q536.1 198.7 538.0 198.7L538.0 198.7Q540.7 198.7 542.5 199.9Q544.2 201.1 545.1 203.2Q546.0 205.2 546.0 207.7L546.0 207.7L546.0 223L542.2 223L542.2 208.8Q542.2 206.6 541.7 205.1Q541.2 203.6 540.1 202.8Q538.9 202.0 537.2 202.0L537.2 202.0Q534.4 202.0 532.7 203.8Q530.9 205.5 530.9 208.8L530.9 208.8L530.9 223Z M573.7 223L569.9 223L569.9 197.1Q569.9 194.5 571.4 192.8Q573.0 191.2 576.2 191.2L576.2 191.2L579.9 191.2L579.9 194.5L576.5 194.5Q575.1 194.5 574.4 195.3Q573.7 196.0 573.7 197.4L573.7 197.4L573.7 223ZM579.6 202.6L566.7 202.6L566.7 199.3L579.6 199.3L579.6 202.6ZM591.9 223.5L591.9 223.5Q588.6 223.5 586.2 222.0Q583.7 220.5 582.4 217.7Q581.0 214.9 581.0 211.1L581.0 211.1Q581.0 207.3 582.4 204.5Q583.7 201.8 586.2 200.2Q588.6 198.7 591.9 198.7L591.9 198.7Q595.2 198.7 597.6 200.2Q600.1 201.8 601.4 204.5Q602.8 207.3 602.8 211.1L602.8 211.1Q602.8 214.9 601.4 217.7Q600.1 220.5 597.6 222.0Q595.2 223.5 591.9 223.5ZM591.9 220.0L591.9 220.0Q595.2 220.0 597.0 217.6Q598.8 215.2 598.8 211.1L598.8 211.1Q598.8 207.0 597.0 204.7Q595.2 202.3 591.9 202.3L591.9 202.3Q588.6 202.3 586.8 204.7Q585.0 207.0 585.0 211.1L585.0 211.1Q585.0 215.2 586.8 217.6Q588.6 220.0 591.9 220.0ZM611.0 223L607.2 223L607.2 199.3L610.5 199.3L610.7 205.3L610.3 205.1Q610.8 202.1 612.3 200.7Q613.8 199.3 616.3 199.3L616.3 199.3L618.6 199.3L618.6 202.8L616.3 202.8Q614.5 202.8 613.3 203.5Q612.2 204.1 611.6 205.4Q611.0 206.7 611.0 208.7L611.0 208.7L611.0 223Z M649.0 223L645.3 223Q642.0 223 640.5 221.5Q639.0 220.0 639.0 216.9L639.0 216.9L639.0 193.7L642.7 193.7L642.7 216.8Q642.7 218.4 643.4 219.1Q644.2 219.7 645.6 219.7L645.6 219.7L649.0 219.7L649.0 223ZM649.0 202.6L635.5 202.6L635.5 199.3L649.0 199.3L649.0 202.6ZM657.0 223L653.2 223L653.2 191.2L657.0 191.2L657.0 204.5L656.5 204.4Q657.0 202.4 658.0 201.2Q659.1 199.9 660.7 199.3Q662.3 198.7 664.1 198.7L664.1 198.7Q666.7 198.7 668.5 199.9Q670.2 201.0 671.1 203.0Q672.1 205.1 672.1 207.7L672.1 207.7L672.1 223L668.3 223L668.3 208.8Q668.3 205.3 667.1 203.7Q665.8 202.0 663.3 202.0L663.3 202.0Q660.5 202.0 658.7 203.8Q657.0 205.5 657.0 208.8L657.0 208.8L657.0 223ZM687.3 223.5L687.3 223.5Q683.9 223.5 681.5 222.0Q679.1 220.5 677.7 217.7Q676.4 214.9 676.4 211.1L676.4 211.1Q676.4 207.4 677.7 204.6Q679.1 201.8 681.5 200.3Q683.8 198.7 687.1 198.7L687.1 198.7Q690.2 198.7 692.6 200.2Q695.0 201.6 696.3 204.4Q697.6 207.2 697.6 211.2L697.6 211.2L697.6 212.3L680.4 212.3Q680.6 216.1 682.4 218.0Q684.2 220.0 687.3 220.0L687.3 220.0Q689.6 220.0 691.1 218.9Q692.6 217.8 693.2 216.0L693.2 216.0L697.2 216.3Q696.3 219.5 693.7 221.5Q691.1 223.5 687.3 223.5ZM680.4 209.0L680.4 209.0L693.5 209.0Q693.2 205.5 691.5 203.9Q689.8 202.3 687.1 202.3L687.1 202.3Q684.4 202.3 682.6 204.0Q680.8 205.7 680.4 209.0Z M726.5 223.7L726.5 223.7Q722.0 223.7 718.8 221.7Q715.5 219.7 713.8 216.0Q712.0 212.3 712.0 207.1L712.0 207.1Q712.0 202.0 713.8 198.2Q715.5 194.5 718.8 192.5Q722.0 190.5 726.5 190.5L726.5 190.5Q731.1 190.5 734.3 192.5Q737.6 194.5 739.3 198.2Q741.1 202.0 741.1 207.1L741.1 207.1Q741.1 212.3 739.3 216.0Q737.6 219.7 734.3 221.7Q731.1 223.7 726.5 223.7ZM726.5 220.0L726.5 220.0Q729.8 220.0 732.2 218.4Q734.6 216.9 735.8 214.0Q737.1 211.2 737.1 207.1L737.1 207.1Q737.1 203.1 735.8 200.2Q734.6 197.3 732.2 195.8Q729.8 194.2 726.5 194.2L726.5 194.2Q723.3 194.2 720.9 195.8Q718.6 197.3 717.3 200.2Q716.0 203.1 716.0 207.1L716.0 207.1Q716.0 211.2 717.3 214.0Q718.6 216.9 720.9 218.4Q723.3 220.0 726.5 220.0ZM758.7 223.7L758.7 223.7Q754.2 223.7 751.0 221.6Q747.8 219.4 746.1 215.7Q744.5 211.9 744.5 207.1L744.5 207.1Q744.5 202.3 746.2 198.6Q747.9 194.8 751.1 192.6Q754.3 190.5 758.7 190.5L758.7 190.5Q762.6 190.5 765.2 191.9Q767.8 193.3 769.3 195.6Q770.9 198.0 771.5 201.0L771.5 201.0L767.4 201.2Q766.9 198.1 764.8 196.2Q762.8 194.2 758.7 194.2L758.7 194.2Q755.1 194.2 752.9 196.0Q750.6 197.8 749.5 200.8Q748.5 203.7 748.5 207.1L748.5 207.1Q748.5 210.8 749.6 213.7Q750.6 216.5 752.9 218.3Q755.2 220.0 758.7 220.0L758.7 220.0Q761.6 220.0 763.6 218.7Q765.7 217.4 766.8 215.2Q767.9 213.1 768.0 210.6L768.0 210.6L758.8 210.6L758.8 206.9L771.6 206.9L771.6 223L768.7 223L768.4 215.7L769.0 216.3Q768.4 218.4 766.9 220.1Q765.4 221.8 763.2 222.8Q761.1 223.7 758.7 223.7Z M791.3 223L787.6 223L787.6 199.3L791.3 199.3L791.3 223ZM791.4 195.5L787.5 195.5L787.5 191.1L791.4 191.1L791.4 195.5ZM802.1 223L798.3 223L798.3 199.3L801.7 199.3L801.9 205.3L801.3 205.1Q801.7 203.1 802.7 201.7Q803.8 200.3 805.2 199.5Q806.7 198.7 808.5 198.7L808.5 198.7Q811.6 198.7 813.5 200.4Q815.5 202.1 816.0 205.2L816.0 205.2L815.3 205.1Q815.6 203.1 816.6 201.7Q817.6 200.2 819.1 199.5Q820.6 198.7 822.6 198.7L822.6 198.7Q825.1 198.7 826.9 199.8Q828.6 200.8 829.5 202.8Q830.4 204.9 830.4 207.7L830.4 207.7L830.4 223L826.6 223L826.6 208.5Q826.6 205.3 825.4 203.7Q824.1 202.0 821.7 202.0L821.7 202.0Q820.0 202.0 818.8 202.8Q817.6 203.6 816.9 205.1Q816.2 206.6 816.2 208.8L816.2 208.8L816.2 223L812.4 223L812.4 208.8Q812.4 205.6 811.3 203.8Q810.2 202.0 807.6 202.0L807.6 202.0Q805.9 202.0 804.7 202.8Q803.4 203.6 802.7 205.2Q802.1 206.7 802.1 208.8L802.1 208.8L802.1 223ZM842.9 223.5L842.9 223.5Q839.2 223.5 837.0 221.8Q834.8 220.1 834.8 217.1L834.8 217.1Q834.8 214.0 836.6 212.3Q838.4 210.5 842.3 209.8L842.3 209.8L850.8 208.3Q850.8 205.3 849.3 203.8Q847.9 202.3 845.1 202.3L845.1 202.3Q842.6 202.3 841.2 203.4Q839.8 204.5 839.2 206.6L839.2 206.6L835.3 206.2Q835.9 202.9 838.5 200.8Q841.1 198.7 845.1 198.7L845.1 198.7Q849.7 198.7 852.1 201.3Q854.5 203.9 854.5 208.4L854.5 208.4L854.5 218.2Q854.5 219.0 854.8 219.3Q855.1 219.7 855.8 219.7L855.8 219.7L856.7 219.7L856.7 223Q856.5 223.0 856.1 223.1Q855.7 223.1 855.3 223.1L855.3 223.1Q853.7 223.1 852.7 222.6Q851.6 222.1 851.2 221.0Q850.8 219.9 850.8 218.1L850.8 218.1L851.2 218.2Q850.9 219.7 849.7 220.9Q848.5 222.1 846.7 222.8Q844.9 223.5 842.9 223.5ZM843.2 220.2L843.2 220.2Q845.6 220.2 847.3 219.3Q849.0 218.4 849.9 216.8Q850.8 215.2 850.8 213.2L850.8 213.2L850.8 211.5L843.0 213.0Q840.6 213.4 839.7 214.3Q838.8 215.2 838.8 216.7L838.8 216.7Q838.8 218.4 840.0 219.3Q841.2 220.2 843.2 220.2ZM869.2 230.3L869.2 230.3Q866.7 230.3 864.6 229.4Q862.5 228.6 861.1 227.0Q859.8 225.4 859.3 223.4L859.3 223.4L863.2 223.1Q863.7 224.7 865.1 225.7Q866.5 226.7 869.2 226.7L869.2 226.7Q872.4 226.7 874.2 225.4Q875.9 224.1 875.9 221.5L875.9 221.5L875.9 217.6Q875.0 219.5 873.2 220.6Q871.3 221.7 868.9 221.7L868.9 221.7Q865.9 221.7 863.6 220.3Q861.2 218.8 859.9 216.2Q858.6 213.6 858.6 210.2L858.6 210.2Q858.6 206.8 859.9 204.3Q861.2 201.7 863.5 200.2Q865.8 198.7 868.8 198.7L868.8 198.7Q871.3 198.7 873.3 199.9Q875.3 201.0 876.1 203.0L876.1 203.0L876.1 199.3L879.6 199.3L879.6 221.4Q879.6 224.2 878.4 226.2Q877.1 228.2 874.8 229.2Q872.5 230.3 869.2 230.3ZM869.1 218.2L869.1 218.2Q872.2 218.2 874.0 216.0Q875.8 213.9 875.9 210.2L875.9 210.2Q875.9 207.8 875.1 206.0Q874.3 204.2 872.7 203.3Q871.2 202.3 869.1 202.3L869.1 202.3Q866.0 202.3 864.3 204.4Q862.5 206.6 862.5 210.2L862.5 210.2Q862.5 213.9 864.3 216.0Q866.1 218.2 869.1 218.2ZM895.0 223.5L895.0 223.5Q891.6 223.5 889.2 222.0Q886.7 220.5 885.4 217.7Q884.1 214.9 884.1 211.1L884.1 211.1Q884.1 207.4 885.4 204.6Q886.7 201.8 889.1 200.3Q891.5 198.7 894.8 198.7L894.8 198.7Q897.9 198.7 900.3 200.2Q902.6 201.6 904.0 204.4Q905.3 207.2 905.3 211.2L905.3 211.2L905.3 212.3L888.0 212.3Q888.2 216.1 890.1 218.0Q891.9 220.0 895.0 220.0L895.0 220.0Q897.3 220.0 898.8 218.9Q900.3 217.8 900.9 216.0L900.9 216.0L904.9 216.3Q904.0 219.5 901.4 221.5Q898.7 223.5 895.0 223.5ZM888.0 209.0L888.0 209.0L901.2 209.0Q900.9 205.5 899.2 203.9Q897.4 202.3 894.8 202.3L894.8 202.3Q892.1 202.3 890.3 204.0Q888.5 205.7 888.0 209.0Z M76.6 290.3L76.6 290.3Q74.0 290.3 72.0 289.4Q69.9 288.6 68.5 287.0Q67.1 285.4 66.6 283.4L66.6 283.4L70.6 283.1Q71.1 284.7 72.5 285.7Q73.9 286.7 76.6 286.7L76.6 286.7Q79.8 286.7 81.5 285.4Q83.3 284.1 83.3 281.5L83.3 281.5L83.3 277.6Q82.4 279.5 80.5 280.6Q78.6 281.7 76.3 281.7L76.3 281.7Q73.3 281.7 71.0 280.3Q68.6 278.8 67.3 276.2Q66.0 273.6 66.0 270.2L66.0 270.2Q66.0 266.8 67.3 264.3Q68.6 261.7 70.9 260.2Q73.2 258.7 76.1 258.7L76.1 258.7Q78.6 258.7 80.6 259.9Q82.6 261.0 83.4 263.0L83.4 263.0L83.4 259.3L87.0 259.3L87.0 281.4Q87.0 284.2 85.8 286.2Q84.5 288.2 82.2 289.2Q79.9 290.3 76.6 290.3ZM76.5 278.2L76.5 278.2Q79.5 278.2 81.4 276.0Q83.2 273.9 83.3 270.2L83.3 270.2Q83.3 267.8 82.5 266.0Q81.7 264.2 80.1 263.3Q78.6 262.3 76.5 262.3L76.5 262.3Q73.4 262.3 71.6 264.4Q69.9 266.6 69.9 270.2L69.9 270.2Q69.9 273.9 71.7 276.0Q73.5 278.2 76.5 278.2ZM102.3 283.5L102.3 283.5Q99.0 283.5 96.5 282.0Q94.1 280.5 92.8 277.7Q91.5 274.9 91.5 271.1L91.5 271.1Q91.5 267.4 92.8 264.6Q94.1 261.8 96.5 260.3Q98.9 258.7 102.2 258.7L102.2 258.7Q105.3 258.7 107.6 260.2Q110.0 261.6 111.3 264.4Q112.7 267.2 112.7 271.2L112.7 271.2L112.7 272.3L95.4 272.3Q95.6 276.1 97.4 278.0Q99.3 280.0 102.3 280.0L102.3 280.0Q104.7 280.0 106.2 278.9Q107.7 277.8 108.3 276.0L108.3 276.0L112.3 276.3Q111.4 279.5 108.7 281.5Q106.1 283.5 102.3 283.5ZM95.4 269.0L95.4 269.0L108.5 269.0Q108.3 265.5 106.5 263.9Q104.8 262.3 102.2 262.3L102.2 262.3Q99.4 262.3 97.7 264.0Q95.9 265.7 95.4 269.0ZM120.9 283L117.1 283L117.1 259.3L120.5 259.3L120.7 265.3L120.2 264.9Q120.7 262.8 121.8 261.4Q122.9 260.1 124.5 259.4Q126.1 258.7 127.9 258.7L127.9 258.7Q130.7 258.7 132.4 259.9Q134.2 261.1 135.1 263.2Q135.9 265.2 135.9 267.7L135.9 267.7L135.9 283L132.2 283L132.2 268.8Q132.2 266.6 131.7 265.1Q131.2 263.6 130.0 262.8Q128.9 262.0 127.1 262.0L127.1 262.0Q124.4 262.0 122.6 263.8Q120.9 265.5 120.9 268.8L120.9 268.8L120.9 283ZM151.2 283.5L151.2 283.5Q147.8 283.5 145.4 282.0Q142.9 280.5 141.6 277.7Q140.3 274.9 140.3 271.1L140.3 271.1Q140.3 267.4 141.6 264.6Q142.9 261.8 145.3 260.3Q147.7 258.7 151.0 258.7L151.0 258.7Q154.1 258.7 156.5 260.2Q158.8 261.6 160.2 264.4Q161.5 267.2 161.5 271.2L161.5 271.2L161.5 272.3L144.2 272.3Q144.5 276.1 146.3 278.0Q148.1 280.0 151.2 280.0L151.2 280.0Q153.5 280.0 155.0 278.9Q156.5 277.8 157.1 276.0L157.1 276.0L161.1 276.3Q160.2 279.5 157.6 281.5Q154.9 283.5 151.2 283.5ZM144.2 269.0L144.2 269.0L157.4 269.0Q157.1 265.5 155.4 263.9Q153.6 262.3 151.0 262.3L151.0 262.3Q148.3 262.3 146.5 264.0Q144.7 265.7 144.2 269.0ZM169.7 283L165.9 283L165.9 259.3L169.2 259.3L169.4 265.3L169.1 265.1Q169.5 262.1 171.0 260.7Q172.5 259.3 175.0 259.3L175.0 259.3L177.3 259.3L177.3 262.8L175.1 262.8Q173.3 262.8 172.1 263.5Q170.9 264.1 170.3 265.4Q169.7 266.7 169.7 268.7L169.7 268.7L169.7 283ZM186.8 283.5L186.8 283.5Q183.2 283.5 181.0 281.8Q178.8 280.1 178.8 277.1L178.8 277.1Q178.8 274.0 180.6 272.3Q182.4 270.5 186.3 269.8L186.3 269.8L194.7 268.3Q194.7 265.3 193.3 263.8Q191.9 262.3 189.1 262.3L189.1 262.3Q186.6 262.3 185.2 263.4Q183.8 264.5 183.2 266.6L183.2 266.6L179.2 266.2Q179.9 262.9 182.5 260.8Q185.0 258.7 189.1 258.7L189.1 258.7Q193.7 258.7 196.1 261.3Q198.5 263.9 198.5 268.4L198.5 268.4L198.5 278.2Q198.5 279.0 198.8 279.3Q199.1 279.7 199.7 279.7L199.7 279.7L200.7 279.7L200.7 283Q200.5 283.0 200.1 283.1Q199.7 283.1 199.3 283.1L199.3 283.1Q197.6 283.1 196.6 282.6Q195.6 282.1 195.2 281.0Q194.7 279.9 194.7 278.1L194.7 278.1L195.2 278.2Q194.9 279.7 193.7 280.9Q192.4 282.1 190.6 282.8Q188.9 283.5 186.8 283.5ZM187.2 280.2L187.2 280.2Q189.6 280.2 191.3 279.3Q192.9 278.4 193.8 276.8Q194.7 275.2 194.7 273.2L194.7 273.2L194.7 271.5L187.0 273.0Q184.6 273.4 183.7 274.3Q182.8 275.2 182.8 276.7L182.8 276.7Q182.8 278.4 184.0 279.3Q185.1 280.2 187.2 280.2ZM215.6 283L211.8 283Q208.6 283 207.0 281.5Q205.5 280.0 205.5 276.9L205.5 276.9L205.5 253.7L209.2 253.7L209.2 276.8Q209.2 278.4 210.0 279.1Q210.7 279.7 212.2 279.7L212.2 279.7L215.6 279.7L215.6 283ZM215.6 262.6L202.0 262.6L202.0 259.3L215.6 259.3L215.6 262.6ZM223.5 283L219.7 283L219.7 259.3L223.5 259.3L223.5 283ZM223.6 255.5L219.6 255.5L219.6 251.1L223.6 251.1L223.6 255.5ZM238.8 283.5L238.8 283.5Q235.5 283.5 233.1 282.0Q230.6 280.5 229.3 277.7Q227.9 274.9 227.9 271.1L227.9 271.1Q227.9 267.3 229.3 264.5Q230.6 261.8 233.1 260.2Q235.5 258.7 238.8 258.7L238.8 258.7Q242.1 258.7 244.5 260.2Q247.0 261.8 248.3 264.5Q249.7 267.3 249.7 271.1L249.7 271.1Q249.7 274.9 248.3 277.7Q247.0 280.5 244.5 282.0Q242.1 283.5 238.8 283.5ZM238.8 280.0L238.8 280.0Q242.1 280.0 243.9 277.6Q245.7 275.2 245.7 271.1L245.7 271.1Q245.7 267.0 243.9 264.7Q242.1 262.3 238.8 262.3L238.8 262.3Q235.5 262.3 233.7 264.7Q231.9 267.0 231.9 271.1L231.9 271.1Q231.9 275.2 233.7 277.6Q235.5 280.0 238.8 280.0ZM257.8 283L254.1 283L254.1 259.3L257.5 259.3L257.7 265.3L257.2 264.9Q257.7 262.8 258.8 261.4Q259.9 260.1 261.5 259.4Q263.1 258.7 264.9 258.7L264.9 258.7Q267.7 258.7 269.4 259.9Q271.2 261.1 272.1 263.2Q272.9 265.2 272.9 267.7L272.9 267.7L272.9 283L269.2 283L269.2 268.8Q269.2 266.6 268.7 265.1Q268.2 263.6 267.0 262.8Q265.9 262.0 264.1 262.0L264.1 262.0Q261.4 262.0 259.6 263.8Q257.8 265.5 257.8 268.8L257.8 268.8L257.8 283ZM282.9 283L277.8 283L277.8 277.9L282.9 277.9L282.9 283Z M309.0 283L305.1 283L305.1 251.2L309.0 251.2L309.0 283ZM326.7 283L322.9 283Q319.7 283 318.1 281.5Q316.6 280.0 316.6 276.9L316.6 276.9L316.6 253.7L320.4 253.7L320.4 276.8Q320.4 278.4 321.1 279.1Q321.8 279.7 323.3 279.7L323.3 279.7L326.7 279.7L326.7 283ZM326.7 262.6L313.1 262.6L313.1 259.3L326.7 259.3L326.7 262.6Z M352.2 283.5L352.2 283.5Q349.0 283.5 346.8 282.5Q344.6 281.5 343.4 279.7Q342.2 277.8 342.0 275.5L342.0 275.5L345.9 275.2Q346.3 277.4 347.8 278.7Q349.2 280.0 352.2 280.0L352.2 280.0Q354.6 280.0 356.1 279.2Q357.6 278.4 357.6 276.6L357.6 276.6Q357.6 275.7 357.1 275.1Q356.7 274.4 355.4 274.0Q354.1 273.5 351.5 273.1L351.5 273.1Q348.1 272.4 346.2 271.5Q344.2 270.6 343.4 269.2Q342.6 267.9 342.6 266.0L342.6 266.0Q342.6 262.8 344.9 260.8Q347.2 258.7 351.5 258.7L351.5 258.7Q354.4 258.7 356.4 259.8Q358.4 260.8 359.6 262.5Q360.7 264.3 361.1 266.3L361.1 266.3L357.1 266.6Q356.8 265.3 356.1 264.4Q355.4 263.4 354.2 262.9Q353.1 262.3 351.5 262.3L351.5 262.3Q348.9 262.3 347.7 263.3Q346.5 264.3 346.5 265.8L346.5 265.8Q346.5 267.0 347.1 267.7Q347.6 268.4 348.9 268.9Q350.1 269.4 352.2 269.7L352.2 269.7Q355.9 270.4 357.9 271.3Q359.9 272.2 360.7 273.5Q361.5 274.8 361.5 276.6L361.5 276.6Q361.5 278.8 360.3 280.4Q359.0 281.9 357.0 282.7Q354.9 283.5 352.2 283.5ZM369.7 283L365.9 283L365.9 251.2L369.7 251.2L369.7 264.5L369.3 264.4Q369.7 262.4 370.8 261.2Q371.9 259.9 373.4 259.3Q375.0 258.7 376.9 258.7L376.9 258.7Q379.4 258.7 381.2 259.9Q383.0 261.0 383.9 263.0Q384.8 265.1 384.8 267.7L384.8 267.7L384.8 283L381.0 283L381.0 268.8Q381.0 265.3 379.8 263.7Q378.6 262.0 376.1 262.0L376.1 262.0Q373.2 262.0 371.4 263.8Q369.7 265.5 369.7 268.8L369.7 268.8L369.7 283ZM400.0 283.5L400.0 283.5Q396.8 283.5 394.3 282.0Q391.8 280.5 390.5 277.7Q389.1 274.9 389.1 271.1L389.1 271.1Q389.1 267.3 390.5 264.5Q391.8 261.8 394.3 260.2Q396.8 258.7 400.0 258.7L400.0 258.7Q403.3 258.7 405.7 260.2Q408.2 261.8 409.5 264.5Q410.9 267.3 410.9 271.1L410.9 271.1Q410.9 274.9 409.5 277.7Q408.2 280.5 405.7 282.0Q403.3 283.5 400.0 283.5ZM400.0 280.0L400.0 280.0Q403.3 280.0 405.1 277.6Q406.9 275.2 406.9 271.1L406.9 271.1Q406.9 267.0 405.1 264.7Q403.3 262.3 400.0 262.3L400.0 262.3Q396.8 262.3 394.9 264.7Q393.1 267.0 393.1 271.1L393.1 271.1Q393.1 275.2 394.9 277.6Q396.8 280.0 400.0 280.0ZM423.1 283.5L423.1 283.5Q419.6 283.5 417.4 281.1Q415.3 278.7 415.3 274.5L415.3 274.5L415.3 259.3L419.1 259.3L419.1 273.5Q419.1 277.0 420.3 278.6Q421.5 280.2 424.1 280.2L424.1 280.2Q426.9 280.2 428.5 278.4Q430.1 276.6 430.1 273.4L430.1 273.4L430.1 259.3L433.9 259.3L433.9 283L430.3 283L430.3 277.1L430.9 277.4Q430.2 280.4 428.2 281.9Q426.2 283.5 423.1 283.5ZM447.7 283L445.1 283Q443.0 283 441.7 281.9Q440.4 280.8 440.4 278.5L440.4 278.5L440.4 251.2L444.2 251.2L444.2 278.2Q444.2 278.9 444.5 279.3Q444.9 279.7 445.6 279.7L445.6 279.7L447.7 279.7L447.7 283ZM459.8 283.5L459.8 283.5Q456.7 283.5 454.5 282.0Q452.2 280.5 451.0 277.7Q449.8 274.9 449.8 271.1L449.8 271.1Q449.8 267.3 451.0 264.5Q452.2 261.8 454.5 260.2Q456.7 258.7 459.8 258.7L459.8 258.7Q462.2 258.7 464.2 259.7Q466.2 260.7 467.1 262.6L467.1 262.6L467.1 251.2L470.9 251.2L470.9 283L467.5 283L467.4 279.4Q466.4 281.3 464.4 282.4Q462.3 283.5 459.8 283.5ZM460.6 280.0L460.6 280.0Q462.7 280.0 464.2 278.9Q465.6 277.8 466.4 275.8Q467.1 273.8 467.1 271.1L467.1 271.1Q467.1 268.4 466.4 266.4Q465.6 264.4 464.2 263.4Q462.7 262.3 460.6 262.3L460.6 262.3Q457.5 262.3 455.6 264.7Q453.7 267.0 453.7 271.1L453.7 271.1Q453.7 275.2 455.6 277.6Q457.5 280.0 460.6 280.0Z M500.5 283.5L500.5 283.5Q498.0 283.5 496.1 282.4Q494.2 281.3 493.1 279.4L493.1 279.4L493.0 283L489.6 283L489.6 251.2L493.3 251.2L493.3 262.6Q494.2 261.1 496.1 259.9Q498.0 258.7 500.5 258.7L500.5 258.7Q503.6 258.7 505.9 260.2Q508.2 261.8 509.4 264.5Q510.7 267.3 510.7 271.1L510.7 271.1Q510.7 274.9 509.4 277.7Q508.2 280.5 505.9 282.0Q503.6 283.5 500.5 283.5ZM500.2 280.0L500.2 280.0Q503.2 280.0 505.0 277.6Q506.7 275.2 506.7 271.1L506.7 271.1Q506.7 267.0 505.0 264.7Q503.2 262.3 500.3 262.3L500.3 262.3Q498.1 262.3 496.6 263.4Q495.0 264.4 494.2 266.4Q493.3 268.4 493.3 271.1L493.3 271.1Q493.3 273.8 494.2 275.8Q495.0 277.8 496.6 278.9Q498.1 280.0 500.2 280.0ZM524.4 283.5L524.4 283.5Q521.0 283.5 518.6 282.0Q516.2 280.5 514.8 277.7Q513.5 274.9 513.5 271.1L513.5 271.1Q513.5 267.4 514.8 264.6Q516.2 261.8 518.5 260.3Q520.9 258.7 524.2 258.7L524.2 258.7Q527.3 258.7 529.7 260.2Q532.1 261.6 533.4 264.4Q534.7 267.2 534.7 271.2L534.7 271.2L534.7 272.3L517.4 272.3Q517.7 276.1 519.5 278.0Q521.3 280.0 524.4 280.0L524.4 280.0Q526.7 280.0 528.2 278.9Q529.7 277.8 530.3 276.0L530.3 276.0L534.3 276.3Q533.4 279.5 530.8 281.5Q528.2 283.5 524.4 283.5ZM517.4 269.0L517.4 269.0L530.6 269.0Q530.3 265.5 528.6 263.9Q526.9 262.3 524.2 262.3L524.2 262.3Q521.5 262.3 519.7 264.0Q517.9 265.7 517.4 269.0Z M563.0 283L559.3 283Q556.0 283 554.5 281.5Q553.0 280.0 553.0 276.9L553.0 276.9L553.0 253.7L556.7 253.7L556.7 276.8Q556.7 278.4 557.4 279.1Q558.2 279.7 559.6 279.7L559.6 279.7L563.0 279.7L563.0 283ZM563.0 262.6L549.5 262.6L549.5 259.3L563.0 259.3L563.0 262.6ZM571.5 283L567.7 283L567.7 259.3L571.0 259.3L571.2 265.3L570.8 265.1Q571.3 262.1 572.8 260.7Q574.3 259.3 576.8 259.3L576.8 259.3L579.1 259.3L579.1 262.8L576.8 262.8Q575.0 262.8 573.9 263.5Q572.7 264.1 572.1 265.4Q571.5 266.7 571.5 268.7L571.5 268.7L571.5 283ZM590.9 283.5L590.9 283.5Q587.4 283.5 585.2 281.1Q583.1 278.7 583.1 274.5L583.1 274.5L583.1 259.3L586.9 259.3L586.9 273.5Q586.9 277.0 588.1 278.6Q589.3 280.2 591.9 280.2L591.9 280.2Q594.7 280.2 596.3 278.4Q597.9 276.6 597.9 273.4L597.9 273.4L597.9 259.3L601.7 259.3L601.7 283L598.1 283L598.1 277.1L598.7 277.4Q598.0 280.4 596.0 281.9Q594.0 283.5 590.9 283.5ZM612.0 283L608.2 283L608.2 259.3L611.6 259.3L611.8 265.3L611.3 264.9Q611.8 262.8 612.9 261.4Q614.0 260.1 615.6 259.4Q617.2 258.7 619.0 258.7L619.0 258.7Q621.8 258.7 623.5 259.9Q625.3 261.1 626.2 263.2Q627.1 265.2 627.1 267.7L627.1 267.7L627.1 283L623.3 283L623.3 268.8Q623.3 266.6 622.8 265.1Q622.3 263.6 621.1 262.8Q620.0 262.0 618.2 262.0L618.2 262.0Q615.5 262.0 613.7 263.8Q612.0 265.5 612.0 268.8L612.0 268.8L612.0 283ZM642.3 283.5L642.3 283.5Q639.0 283.5 636.5 282.0Q634.1 280.5 632.7 277.7Q631.4 274.9 631.4 271.1L631.4 271.1Q631.4 267.4 632.7 264.6Q634.1 261.8 636.5 260.3Q639.0 258.7 642.3 258.7L642.3 258.7Q645.0 258.7 647.2 259.7Q649.3 260.6 650.6 262.5Q652.0 264.3 652.4 267.0L652.4 267.0L648.4 267.2Q648.0 264.9 646.4 263.6Q644.7 262.3 642.3 262.3L642.3 262.3Q639.0 262.3 637.2 264.7Q635.3 267.0 635.3 271.1L635.3 271.1Q635.3 275.2 637.2 277.6Q639.0 280.0 642.3 280.0L642.3 280.0Q644.7 280.0 646.4 278.6Q648.0 277.3 648.4 274.6L648.4 274.6L652.4 274.8Q652.0 277.5 650.6 279.4Q649.3 281.4 647.2 282.5Q645.0 283.5 642.3 283.5ZM663.4 283.5L663.4 283.5Q659.7 283.5 657.5 281.8Q655.4 280.1 655.4 277.1L655.4 277.1Q655.4 274.0 657.2 272.3Q659.0 270.5 662.9 269.8L662.9 269.8L671.3 268.3Q671.3 265.3 669.9 263.8Q668.5 262.3 665.6 262.3L665.6 262.3Q663.2 262.3 661.7 263.4Q660.3 264.5 659.8 266.6L659.8 266.6L655.8 266.2Q656.4 262.9 659.0 260.8Q661.6 258.7 665.6 258.7L665.6 258.7Q670.2 258.7 672.6 261.3Q675.0 263.9 675.0 268.4L675.0 268.4L675.0 278.2Q675.0 279.0 675.3 279.3Q675.6 279.7 676.3 279.7L676.3 279.7L677.2 279.7L677.2 283Q677.1 283.0 676.7 283.1Q676.2 283.1 675.8 283.1L675.8 283.1Q674.2 283.1 673.2 282.6Q672.2 282.1 671.7 281.0Q671.3 279.9 671.3 278.1L671.3 278.1L671.7 278.2Q671.4 279.7 670.2 280.9Q669.0 282.1 667.2 282.8Q665.4 283.5 663.4 283.5ZM663.7 280.2L663.7 280.2Q666.1 280.2 667.8 279.3Q669.5 278.4 670.4 276.8Q671.3 275.2 671.3 273.2L671.3 273.2L671.3 271.5L663.6 273.0Q661.2 273.4 660.2 274.3Q659.3 275.2 659.3 276.7L659.3 276.7Q659.3 278.4 660.5 279.3Q661.7 280.2 663.7 280.2ZM692.1 283L688.3 283Q685.1 283 683.6 281.5Q682.0 280.0 682.0 276.9L682.0 276.9L682.0 253.7L685.8 253.7L685.8 276.8Q685.8 278.4 686.5 279.1Q687.2 279.7 688.7 279.7L688.7 279.7L692.1 279.7L692.1 283ZM692.1 262.6L678.5 262.6L678.5 259.3L692.1 259.3L692.1 262.6ZM705.1 283.5L705.1 283.5Q701.7 283.5 699.3 282.0Q696.9 280.5 695.5 277.7Q694.2 274.9 694.2 271.1L694.2 271.1Q694.2 267.4 695.5 264.6Q696.9 261.8 699.3 260.3Q701.6 258.7 704.9 258.7L704.9 258.7Q708.0 258.7 710.4 260.2Q712.8 261.6 714.1 264.4Q715.4 267.2 715.4 271.2L715.4 271.2L715.4 272.3L698.2 272.3Q698.4 276.1 700.2 278.0Q702.0 280.0 705.1 280.0L705.1 280.0Q707.4 280.0 708.9 278.9Q710.4 277.8 711.0 276.0L711.0 276.0L715.0 276.3Q714.1 279.5 711.5 281.5Q708.9 283.5 705.1 283.5ZM698.2 269.0L698.2 269.0L711.3 269.0Q711.0 265.5 709.3 263.9Q707.6 262.3 704.9 262.3L704.9 262.3Q702.2 262.3 700.4 264.0Q698.6 265.7 698.2 269.0ZM728.3 283.5L728.3 283.5Q725.2 283.5 722.9 282.0Q720.6 280.5 719.4 277.7Q718.2 274.9 718.2 271.1L718.2 271.1Q718.2 267.3 719.4 264.5Q720.6 261.8 722.9 260.2Q725.2 258.7 728.3 258.7L728.3 258.7Q730.6 258.7 732.6 259.7Q734.6 260.7 735.6 262.6L735.6 262.6L735.6 251.2L739.3 251.2L739.3 283L735.9 283L735.8 279.4Q734.8 281.3 732.8 282.4Q730.8 283.5 728.3 283.5ZM729.0 280.0L729.0 280.0Q731.1 280.0 732.6 278.9Q734.0 277.8 734.8 275.8Q735.6 273.8 735.6 271.1L735.6 271.1Q735.6 268.4 734.8 266.4Q734.0 264.4 732.6 263.4Q731.1 262.3 729.0 262.3L729.0 262.3Q725.9 262.3 724.0 264.7Q722.2 267.0 722.2 271.1L722.2 271.1Q722.2 275.2 724.0 277.6Q725.9 280.0 729.0 280.0Z M766.0 283.5L766.0 283.5Q762.3 283.5 760.1 281.8Q758.0 280.1 758.0 277.1L758.0 277.1Q758.0 274.0 759.8 272.3Q761.6 270.5 765.5 269.8L765.5 269.8L773.9 268.3Q773.9 265.3 772.5 263.8Q771.1 262.3 768.2 262.3L768.2 262.3Q765.8 262.3 764.3 263.4Q762.9 264.5 762.4 266.6L762.4 266.6L758.4 266.2Q759.0 262.9 761.6 260.8Q764.2 258.7 768.2 258.7L768.2 258.7Q772.8 258.7 775.2 261.3Q777.6 263.9 777.6 268.4L777.6 268.4L777.6 278.2Q777.6 279.0 777.9 279.3Q778.2 279.7 778.9 279.7L778.9 279.7L779.8 279.7L779.8 283Q779.7 283.0 779.3 283.1Q778.8 283.1 778.4 283.1L778.4 283.1Q776.8 283.1 775.8 282.6Q774.8 282.1 774.3 281.0Q773.9 279.9 773.9 278.1L773.9 278.1L774.3 278.2Q774.0 279.7 772.8 280.9Q771.6 282.1 769.8 282.8Q768.0 283.5 766.0 283.5ZM766.3 280.2L766.3 280.2Q768.7 280.2 770.4 279.3Q772.1 278.4 773.0 276.8Q773.9 275.2 773.9 273.2L773.9 273.2L773.9 271.5L766.2 273.0Q763.8 273.4 762.8 274.3Q761.9 275.2 761.9 276.7L761.9 276.7Q761.9 278.4 763.1 279.3Q764.3 280.2 766.3 280.2ZM788.3 283L784.5 283L784.5 257.1Q784.5 254.5 786.0 252.8Q787.5 251.2 790.8 251.2L790.8 251.2L794.5 251.2L794.5 254.5L791.0 254.5Q789.6 254.5 789.0 255.3Q788.3 256.0 788.3 257.4L788.3 257.4L788.3 283ZM794.2 262.6L781.3 262.6L781.3 259.3L794.2 259.3L794.2 262.6ZM809.8 283L806.1 283Q802.9 283 801.3 281.5Q799.8 280.0 799.8 276.9L799.8 276.9L799.8 253.7L803.5 253.7L803.5 276.8Q803.5 278.4 804.2 279.1Q805.0 279.7 806.4 279.7L806.4 279.7L809.8 279.7L809.8 283ZM809.8 262.6L796.3 262.6L796.3 259.3L809.8 259.3L809.8 262.6ZM822.8 283.5L822.8 283.5Q819.5 283.5 817.0 282.0Q814.6 280.5 813.3 277.7Q812.0 274.9 812.0 271.1L812.0 271.1Q812.0 267.4 813.3 264.6Q814.6 261.8 817.0 260.3Q819.4 258.7 822.7 258.7L822.7 258.7Q825.8 258.7 828.1 260.2Q830.5 261.6 831.8 264.4Q833.1 267.2 833.1 271.2L833.1 271.2L833.1 272.3L815.9 272.3Q816.1 276.1 817.9 278.0Q819.8 280.0 822.8 280.0L822.8 280.0Q825.2 280.0 826.7 278.9Q828.2 277.8 828.8 276.0L828.8 276.0L832.8 276.3Q831.8 279.5 829.2 281.5Q826.6 283.5 822.8 283.5ZM815.9 269.0L815.9 269.0L829.0 269.0Q828.8 265.5 827.0 263.9Q825.3 262.3 822.7 262.3L822.7 262.3Q819.9 262.3 818.2 264.0Q816.4 265.7 815.9 269.0ZM841.3 283L837.6 283L837.6 259.3L840.9 259.3L841.1 265.3L840.7 265.1Q841.2 262.1 842.7 260.7Q844.2 259.3 846.7 259.3L846.7 259.3L849.0 259.3L849.0 262.8L846.7 262.8Q844.9 262.8 843.7 263.5Q842.6 264.1 841.9 265.4Q841.3 266.7 841.3 268.7L841.3 268.7L841.3 283Z M877.3 283L873.4 283L873.4 259.4L866.8 259.4L866.8 256.1L869.5 256.1Q871.2 256.1 872.3 255.7Q873.3 255.2 873.8 254.1Q874.2 253.1 874.2 251.2L874.2 251.2L877.3 251.2L877.3 283ZM906.1 283L883.8 283Q883.8 279.6 884.8 276.9Q885.9 274.2 888.5 271.8Q891.2 269.3 896.0 266.8L896.0 266.8Q898.2 265.6 899.5 264.6Q900.8 263.6 901.5 262.5Q902.1 261.4 902.1 259.8L902.1 259.8Q902.1 258.1 901.4 256.9Q900.7 255.7 899.2 255.0Q897.8 254.2 895.7 254.2L895.7 254.2Q892.4 254.2 890.4 256.0Q888.5 257.7 888.0 261.0L888.0 261.0L884.0 260.7Q884.5 256.0 887.5 253.3Q890.6 250.5 895.7 250.5L895.7 250.5Q899.0 250.5 901.3 251.6Q903.7 252.8 904.9 254.9Q906.1 257.0 906.1 259.7L906.1 259.7Q906.1 262.1 905.3 263.9Q904.5 265.7 902.6 267.2Q900.7 268.7 897.4 270.5L897.4 270.5Q893.1 272.7 890.9 275.1Q888.7 277.4 888.5 279.2L888.5 279.2L906.1 279.2L906.1 283ZM922.1 283.7L922.1 283.7Q918.8 283.7 916.3 282.6Q913.9 281.5 912.5 279.5Q911.1 277.4 910.8 274.8L910.8 274.8L914.9 274.5Q915.2 277.2 917.2 278.6Q919.1 280.0 922.1 280.0L922.1 280.0Q925.5 280.0 927.5 278.0Q929.4 276.1 929.4 272.8L929.4 272.8Q929.4 270.5 928.5 268.9Q927.7 267.3 926.0 266.4Q924.4 265.5 922.0 265.5L922.0 265.5Q919.8 265.5 918.0 266.4Q916.3 267.4 915.5 269.1L915.5 269.1L911.4 269.1L913.5 251.2L931.3 251.2L931.3 255.0L917.0 255.0L915.6 266.7L914.9 266.0Q915.6 264.6 916.8 263.7Q918.0 262.8 919.5 262.3Q921.0 261.8 922.7 261.8L922.7 261.8Q925.9 261.8 928.3 263.2Q930.8 264.6 932.1 267.1Q933.5 269.6 933.5 272.8L933.5 272.8Q933.5 276.0 932.0 278.5Q930.6 280.9 928.0 282.3Q925.5 283.7 922.1 283.7Z M76.9 343.5L76.9 343.5Q73.5 343.5 71.1 342.0Q68.7 340.5 67.3 337.7Q66.0 334.9 66.0 331.1L66.0 331.1Q66.0 327.4 67.3 324.6Q68.7 321.8 71.1 320.3Q73.5 318.7 76.9 318.7L76.9 318.7Q79.6 318.7 81.7 319.7Q83.8 320.6 85.2 322.5Q86.5 324.3 86.9 327.0L86.9 327.0L83.0 327.2Q82.6 324.9 80.9 323.6Q79.3 322.3 76.9 322.3L76.9 322.3Q73.6 322.3 71.8 324.7Q69.9 327.0 69.9 331.1L69.9 331.1Q69.9 335.2 71.8 337.6Q73.6 340.0 76.9 340.0L76.9 340.0Q79.3 340.0 80.9 338.6Q82.6 337.3 83.0 334.6L83.0 334.6L86.9 334.8Q86.5 337.5 85.2 339.4Q83.8 341.4 81.7 342.5Q79.6 343.5 76.9 343.5ZM94.7 343L90.9 343L90.9 311.2L94.7 311.2L94.7 324.5L94.2 324.4Q94.7 322.4 95.8 321.2Q96.8 319.9 98.4 319.3Q100.0 318.7 101.9 318.7L101.9 318.7Q104.4 318.7 106.2 319.9Q107.9 321.0 108.9 323.0Q109.8 325.1 109.8 327.7L109.8 327.7L109.8 343L106.0 343L106.0 328.8Q106.0 325.3 104.8 323.7Q103.6 322.0 101.0 322.0L101.0 322.0Q98.2 322.0 96.4 323.8Q94.7 325.5 94.7 328.8L94.7 328.8L94.7 343ZM122.2 343.5L122.2 343.5Q118.6 343.5 116.4 341.8Q114.2 340.1 114.2 337.1L114.2 337.1Q114.2 334.0 116.0 332.3Q117.8 330.5 121.7 329.8L121.7 329.8L130.1 328.3Q130.1 325.3 128.7 323.8Q127.3 322.3 124.5 322.3L124.5 322.3Q122.0 322.3 120.6 323.4Q119.1 324.5 118.6 326.6L118.6 326.6L114.6 326.2Q115.3 322.9 117.9 320.8Q120.4 318.7 124.5 318.7L124.5 318.7Q129.0 318.7 131.5 321.3Q133.9 323.9 133.9 328.4L133.9 328.4L133.9 338.2Q133.9 339.0 134.2 339.3Q134.5 339.7 135.1 339.7L135.1 339.7L136.1 339.7L136.1 343Q135.9 343.0 135.5 343.1Q135.1 343.1 134.6 343.1L134.6 343.1Q133.0 343.1 132.0 342.6Q131.0 342.1 130.6 341.0Q130.1 339.9 130.1 338.1L130.1 338.1L130.6 338.2Q130.3 339.7 129.0 340.9Q127.8 342.1 126.0 342.8Q124.3 343.5 122.2 343.5ZM122.6 340.2L122.6 340.2Q125.0 340.2 126.7 339.3Q128.3 338.4 129.2 336.8Q130.1 335.2 130.1 333.2L130.1 333.2L130.1 331.5L122.4 333.0Q120.0 333.4 119.1 334.3Q118.2 335.2 118.2 336.7L118.2 336.7Q118.2 338.4 119.4 339.3Q120.5 340.2 122.6 340.2ZM143.4 343L139.7 343L139.7 319.3L143.0 319.3L143.2 325.3L142.8 325.1Q143.3 322.1 144.8 320.7Q146.3 319.3 148.8 319.3L148.8 319.3L151.1 319.3L151.1 322.8L148.8 322.8Q147.0 322.8 145.8 323.5Q144.6 324.1 144.0 325.4Q143.4 326.7 143.4 328.7L143.4 328.7L143.4 343ZM160.6 343.5L160.6 343.5Q156.9 343.5 154.7 341.8Q152.6 340.1 152.6 337.1L152.6 337.1Q152.6 334.0 154.4 332.3Q156.2 330.5 160.1 329.8L160.1 329.8L168.5 328.3Q168.5 325.3 167.1 323.8Q165.7 322.3 162.8 322.3L162.8 322.3Q160.4 322.3 158.9 323.4Q157.5 324.5 157.0 326.6L157.0 326.6L153.0 326.2Q153.6 322.9 156.2 320.8Q158.8 318.7 162.8 318.7L162.8 318.7Q167.4 318.7 169.8 321.3Q172.2 323.9 172.2 328.4L172.2 328.4L172.2 338.2Q172.2 339.0 172.5 339.3Q172.8 339.7 173.5 339.7L173.5 339.7L174.4 339.7L174.4 343Q174.3 343.0 173.8 343.1Q173.4 343.1 173.0 343.1L173.0 343.1Q171.4 343.1 170.4 342.6Q169.4 342.1 168.9 341.0Q168.5 339.9 168.5 338.1L168.5 338.1L168.9 338.2Q168.6 339.7 167.4 340.9Q166.2 342.1 164.4 342.8Q162.6 343.5 160.6 343.5ZM160.9 340.2L160.9 340.2Q163.3 340.2 165.0 339.3Q166.7 338.4 167.6 336.8Q168.5 335.2 168.5 333.2L168.5 333.2L168.5 331.5L160.8 333.0Q158.3 333.4 157.4 334.3Q156.5 335.2 156.5 336.7L156.5 336.7Q156.5 338.4 157.7 339.3Q158.9 340.2 160.9 340.2ZM187.2 343.5L187.2 343.5Q183.9 343.5 181.4 342.0Q179.0 340.5 177.7 337.7Q176.3 334.9 176.3 331.1L176.3 331.1Q176.3 327.4 177.7 324.6Q179.0 321.8 181.4 320.3Q183.9 318.7 187.2 318.7L187.2 318.7Q189.9 318.7 192.1 319.7Q194.2 320.6 195.5 322.5Q196.9 324.3 197.3 327.0L197.3 327.0L193.3 327.2Q192.9 324.9 191.3 323.6Q189.6 322.3 187.2 322.3L187.2 322.3Q183.9 322.3 182.1 324.7Q180.3 327.0 180.3 331.1L180.3 331.1Q180.3 335.2 182.1 337.6Q183.9 340.0 187.2 340.0L187.2 340.0Q189.6 340.0 191.3 338.6Q192.9 337.3 193.3 334.6L193.3 334.6L197.3 334.8Q196.9 337.5 195.5 339.4Q194.2 341.4 192.1 342.5Q189.9 343.5 187.2 343.5ZM212.8 343L209.1 343Q205.8 343 204.3 341.5Q202.7 340.0 202.7 336.9L202.7 336.9L202.7 313.7L206.5 313.7L206.5 336.8Q206.5 338.4 207.2 339.1Q207.9 339.7 209.4 339.7L209.4 339.7L212.8 339.7L212.8 343ZM212.8 322.6L199.3 322.6L199.3 319.3L212.8 319.3L212.8 322.6ZM225.8 343.5L225.8 343.5Q222.5 343.5 220.0 342.0Q217.6 340.5 216.3 337.7Q214.9 334.9 214.9 331.1L214.9 331.1Q214.9 327.4 216.3 324.6Q217.6 321.8 220.0 320.3Q222.4 318.7 225.6 318.7L225.6 318.7Q228.7 318.7 231.1 320.2Q233.5 321.6 234.8 324.4Q236.1 327.2 236.1 331.2L236.1 331.2L236.1 332.3L218.9 332.3Q219.1 336.1 220.9 338.0Q222.7 340.0 225.8 340.0L225.8 340.0Q228.1 340.0 229.6 338.9Q231.1 337.8 231.7 336.0L231.7 336.0L235.8 336.3Q234.8 339.5 232.2 341.5Q229.6 343.5 225.8 343.5ZM218.9 329.0L218.9 329.0L232.0 329.0Q231.7 325.5 230.0 323.9Q228.3 322.3 225.6 322.3L225.6 322.3Q222.9 322.3 221.1 324.0Q219.4 325.7 218.9 329.0ZM244.3 343L240.6 343L240.6 319.3L243.9 319.3L244.1 325.3L243.7 325.1Q244.1 322.1 245.6 320.7Q247.1 319.3 249.7 319.3L249.7 319.3L252.0 319.3L252.0 322.8L249.7 322.8Q247.9 322.8 246.7 323.5Q245.5 324.1 244.9 325.4Q244.3 326.7 244.3 328.7L244.3 328.7L244.3 343ZM263.7 343.5L263.7 343.5Q260.5 343.5 258.3 342.5Q256.1 341.5 254.9 339.7Q253.6 337.8 253.5 335.5L253.5 335.5L257.4 335.2Q257.8 337.4 259.2 338.7Q260.7 340.0 263.7 340.0L263.7 340.0Q266.1 340.0 267.6 339.2Q269.0 338.4 269.0 336.6L269.0 336.6Q269.0 335.7 268.6 335.1Q268.2 334.4 266.9 334.0Q265.6 333.5 263.0 333.1L263.0 333.1Q259.6 332.4 257.6 331.5Q255.7 330.6 254.9 329.2Q254.0 327.9 254.0 326.0L254.0 326.0Q254.0 322.8 256.4 320.8Q258.7 318.7 263.0 318.7L263.0 318.7Q265.9 318.7 267.9 319.8Q269.9 320.8 271.0 322.5Q272.2 324.3 272.5 326.3L272.5 326.3L268.6 326.6Q268.3 325.3 267.6 324.4Q266.9 323.4 265.7 322.9Q264.6 322.3 263.0 322.3L263.0 322.3Q260.4 322.3 259.2 323.3Q258.0 324.3 258.0 325.8L258.0 325.8Q258.0 327.0 258.5 327.7Q259.1 328.4 260.4 328.9Q261.6 329.4 263.7 329.7L263.7 329.7Q267.3 330.4 269.4 331.3Q271.4 332.2 272.2 333.5Q273.0 334.8 273.0 336.6L273.0 336.6Q273.0 338.8 271.8 340.4Q270.5 341.9 268.4 342.7Q266.4 343.5 263.7 343.5Z M308.0 343L304.3 343Q301.0 343 299.5 341.5Q298.0 340.0 298.0 336.9L298.0 336.9L298.0 313.7L301.7 313.7L301.7 336.8Q301.7 338.4 302.4 339.1Q303.2 339.7 304.6 339.7L304.6 339.7L308.0 339.7L308.0 343ZM308.0 322.6L294.5 322.6L294.5 319.3L308.0 319.3L308.0 322.6ZM321.0 343.5L321.0 343.5Q317.8 343.5 315.3 342.0Q312.8 340.5 311.5 337.7Q310.1 334.9 310.1 331.1L310.1 331.1Q310.1 327.3 311.5 324.5Q312.8 321.8 315.3 320.2Q317.8 318.7 321.0 318.7L321.0 318.7Q324.3 318.7 326.7 320.2Q329.2 321.8 330.5 324.5Q331.9 327.3 331.9 331.1L331.9 331.1Q331.9 334.9 330.5 337.7Q329.2 340.5 326.7 342.0Q324.3 343.5 321.0 343.5ZM321.0 340.0L321.0 340.0Q324.3 340.0 326.1 337.6Q327.9 335.2 327.9 331.1L327.9 331.1Q327.9 327.0 326.1 324.7Q324.3 322.3 321.0 322.3L321.0 322.3Q317.8 322.3 315.9 324.7Q314.1 327.0 314.1 331.1L314.1 331.1Q314.1 335.2 315.9 337.6Q317.8 340.0 321.0 340.0Z M357.9 343.5L357.9 343.5Q354.5 343.5 352.1 342.0Q349.6 340.5 348.3 337.7Q347.0 334.9 347.0 331.1L347.0 331.1Q347.0 327.4 348.3 324.6Q349.6 321.8 352.0 320.3Q354.4 318.7 357.7 318.7L357.7 318.7Q360.8 318.7 363.1 320.2Q365.5 321.6 366.8 324.4Q368.2 327.2 368.2 331.2L368.2 331.2L368.2 332.3L350.9 332.3Q351.1 336.1 353.0 338.0Q354.8 340.0 357.9 340.0L357.9 340.0Q360.2 340.0 361.7 338.9Q363.2 337.8 363.8 336.0L363.8 336.0L367.8 336.3Q366.9 339.5 364.2 341.5Q361.6 343.5 357.9 343.5ZM350.9 329.0L350.9 329.0L364.0 329.0Q363.8 325.5 362.0 323.9Q360.3 322.3 357.7 322.3L357.7 322.3Q354.9 322.3 353.2 324.0Q351.4 325.7 350.9 329.0ZM376.4 343L372.6 343L372.6 319.3L376.0 319.3L376.2 325.3L375.7 324.9Q376.2 322.8 377.3 321.4Q378.4 320.1 380.0 319.4Q381.6 318.7 383.4 318.7L383.4 318.7Q386.2 318.7 387.9 319.9Q389.7 321.1 390.6 323.2Q391.5 325.2 391.5 327.7L391.5 327.7L391.5 343L387.7 343L387.7 328.8Q387.7 326.6 387.2 325.1Q386.7 323.6 385.5 322.8Q384.4 322.0 382.6 322.0L382.6 322.0Q379.9 322.0 378.1 323.8Q376.4 325.5 376.4 328.8L376.4 328.8L376.4 343ZM406.1 343.5L406.1 343.5Q402.9 343.5 400.7 342.5Q398.4 341.5 397.2 339.7Q396.0 337.8 395.8 335.5L395.8 335.5L399.7 335.2Q400.1 337.4 401.6 338.7Q403.1 340.0 406.1 340.0L406.1 340.0Q408.5 340.0 409.9 339.2Q411.4 338.4 411.4 336.6L411.4 336.6Q411.4 335.7 410.9 335.1Q410.5 334.4 409.2 334.0Q407.9 333.5 405.3 333.1L405.3 333.1Q401.9 332.4 400.0 331.5Q398.0 330.6 397.2 329.2Q396.4 327.9 396.4 326.0L396.4 326.0Q396.4 322.8 398.7 320.8Q401.0 318.7 405.3 318.7L405.3 318.7Q408.3 318.7 410.3 319.8Q412.2 320.8 413.4 322.5Q414.5 324.3 414.9 326.3L414.9 326.3L410.9 326.6Q410.7 325.3 410.0 324.4Q409.2 323.4 408.1 322.9Q406.9 322.3 405.3 322.3L405.3 322.3Q402.7 322.3 401.5 323.3Q400.3 324.3 400.3 325.8L400.3 325.8Q400.3 327.0 400.9 327.7Q401.4 328.4 402.7 328.9Q404.0 329.4 406.1 329.7L406.1 329.7Q409.7 330.4 411.7 331.3Q413.7 332.2 414.5 333.5Q415.3 334.8 415.3 336.6L415.3 336.6Q415.3 338.8 414.1 340.4Q412.9 341.9 410.8 342.7Q408.7 343.5 406.1 343.5ZM427.6 343.5L427.6 343.5Q424.0 343.5 421.9 341.1Q419.8 338.7 419.8 334.5L419.8 334.5L419.8 319.3L423.5 319.3L423.5 333.5Q423.5 337.0 424.8 338.6Q426.0 340.2 428.6 340.2L428.6 340.2Q431.4 340.2 433.0 338.4Q434.6 336.6 434.6 333.4L434.6 333.4L434.6 319.3L438.4 319.3L438.4 343L434.8 343L434.8 337.1L435.4 337.4Q434.6 340.4 432.6 341.9Q430.6 343.5 427.6 343.5ZM448.6 343L444.9 343L444.9 319.3L448.2 319.3L448.4 325.3L448.0 325.1Q448.4 322.1 449.9 320.7Q451.4 319.3 454.0 319.3L454.0 319.3L456.3 319.3L456.3 322.8L454.0 322.8Q452.2 322.8 451.0 323.5Q449.8 324.1 449.2 325.4Q448.6 326.7 448.6 328.7L448.6 328.7L448.6 343ZM468.6 343.5L468.6 343.5Q465.3 343.5 462.8 342.0Q460.4 340.5 459.1 337.7Q457.8 334.9 457.8 331.1L457.8 331.1Q457.8 327.4 459.1 324.6Q460.4 321.8 462.8 320.3Q465.2 318.7 468.5 318.7L468.5 318.7Q471.6 318.7 473.9 320.2Q476.3 321.6 477.6 324.4Q479.0 327.2 479.0 331.2L479.0 331.2L479.0 332.3L461.7 332.3Q461.9 336.1 463.7 338.0Q465.6 340.0 468.6 340.0L468.6 340.0Q471.0 340.0 472.5 338.9Q474.0 337.8 474.6 336.0L474.6 336.0L478.6 336.3Q477.7 339.5 475.0 341.5Q472.4 343.5 468.6 343.5ZM461.7 329.0L461.7 329.0L474.8 329.0Q474.6 325.5 472.8 323.9Q471.1 322.3 468.5 322.3L468.5 322.3Q465.7 322.3 464.0 324.0Q462.2 325.7 461.7 329.0Z M506.9 343.5L506.9 343.5Q503.5 343.5 501.1 342.0Q498.7 340.5 497.3 337.7Q496.0 334.9 496.0 331.1L496.0 331.1Q496.0 327.4 497.3 324.6Q498.7 321.8 501.1 320.3Q503.5 318.7 506.9 318.7L506.9 318.7Q509.6 318.7 511.7 319.7Q513.8 320.6 515.2 322.5Q516.5 324.3 516.9 327.0L516.9 327.0L513.0 327.2Q512.6 324.9 510.9 323.6Q509.3 322.3 506.9 322.3L506.9 322.3Q503.6 322.3 501.8 324.7Q499.9 327.0 499.9 331.1L499.9 331.1Q499.9 335.2 501.8 337.6Q503.6 340.0 506.9 340.0L506.9 340.0Q509.3 340.0 510.9 338.6Q512.6 337.3 513.0 334.6L513.0 334.6L516.9 334.8Q516.5 337.5 515.2 339.4Q513.8 341.4 511.7 342.5Q509.6 343.5 506.9 343.5ZM530.2 343.5L530.2 343.5Q526.9 343.5 524.5 342.0Q522 340.5 520.7 337.7Q519.3 334.9 519.3 331.1L519.3 331.1Q519.3 327.3 520.7 324.5Q522 321.8 524.5 320.2Q526.9 318.7 530.2 318.7L530.2 318.7Q533.5 318.7 535.9 320.2Q538.4 321.8 539.7 324.5Q541.0 327.3 541.0 331.1L541.0 331.1Q541.0 334.9 539.7 337.7Q538.4 340.5 535.9 342.0Q533.5 343.5 530.2 343.5ZM530.2 340.0L530.2 340.0Q533.5 340.0 535.3 337.6Q537.1 335.2 537.1 331.1L537.1 331.1Q537.1 327.0 535.3 324.7Q533.5 322.3 530.2 322.3L530.2 322.3Q526.9 322.3 525.1 324.7Q523.3 327.0 523.3 331.1L523.3 331.1Q523.3 335.2 525.1 337.6Q526.9 340.0 530.2 340.0ZM549.2 343L545.5 343L545.5 319.3L548.9 319.3L549.1 325.3L548.6 324.9Q549.1 322.8 550.2 321.4Q551.3 320.1 552.9 319.4Q554.5 318.7 556.3 318.7L556.3 318.7Q559.0 318.7 560.8 319.9Q562.6 321.1 563.5 323.2Q564.3 325.2 564.3 327.7L564.3 327.7L564.3 343L560.6 343L560.6 328.8Q560.6 326.6 560.1 325.1Q559.5 323.6 558.4 322.8Q557.3 322.0 555.5 322.0L555.5 322.0Q552.8 322.0 551.0 323.8Q549.2 325.5 549.2 328.8L549.2 328.8L549.2 343ZM578.9 343.5L578.9 343.5Q575.8 343.5 573.5 342.5Q571.3 341.5 570.1 339.7Q568.9 337.8 568.7 335.5L568.7 335.5L572.6 335.2Q573.0 337.4 574.5 338.7Q575.9 340.0 578.9 340.0L578.9 340.0Q581.4 340.0 582.8 339.2Q584.3 338.4 584.3 336.6L584.3 336.6Q584.3 335.7 583.8 335.1Q583.4 334.4 582.1 334.0Q580.8 333.5 578.2 333.1L578.2 333.1Q574.8 332.4 572.9 331.5Q570.9 330.6 570.1 329.2Q569.3 327.9 569.3 326.0L569.3 326.0Q569.3 322.8 571.6 320.8Q573.9 318.7 578.2 318.7L578.2 318.7Q581.1 318.7 583.1 319.8Q585.1 320.8 586.3 322.5Q587.4 324.3 587.8 326.3L587.8 326.3L583.8 326.6Q583.6 325.3 582.8 324.4Q582.1 323.4 581.0 322.9Q579.8 322.3 578.2 322.3L578.2 322.3Q575.6 322.3 574.4 323.3Q573.2 324.3 573.2 325.8L573.2 325.8Q573.2 327.0 573.8 327.7Q574.3 328.4 575.6 328.9Q576.8 329.4 578.9 329.7L578.9 329.7Q582.6 330.4 584.6 331.3Q586.6 332.2 587.4 333.5Q588.2 334.8 588.2 336.6L588.2 336.6Q588.2 338.8 587.0 340.4Q585.8 341.9 583.7 342.7Q581.6 343.5 578.9 343.5ZM596.4 343L592.6 343L592.6 319.3L596.4 319.3L596.4 343ZM596.5 315.5L592.6 315.5L592.6 311.1L596.5 311.1L596.5 315.5ZM611.1 343.5L611.1 343.5Q607.9 343.5 605.7 342.5Q603.5 341.5 602.3 339.7Q601.0 337.8 600.8 335.5L600.8 335.5L604.8 335.2Q605.1 337.4 606.6 338.7Q608.1 340.0 611.1 340.0L611.1 340.0Q613.5 340.0 615.0 339.2Q616.4 338.4 616.4 336.6L616.4 336.6Q616.4 335.7 616.0 335.1Q615.5 334.4 614.2 334.0Q612.9 333.5 610.4 333.1L610.4 333.1Q607.0 332.4 605.0 331.5Q603.1 330.6 602.3 329.2Q601.4 327.9 601.4 326.0L601.4 326.0Q601.4 322.8 603.8 320.8Q606.1 318.7 610.4 318.7L610.4 318.7Q613.3 318.7 615.3 319.8Q617.3 320.8 618.4 322.5Q619.6 324.3 619.9 326.3L619.9 326.3L616.0 326.6Q615.7 325.3 615.0 324.4Q614.3 323.4 613.1 322.9Q612.0 322.3 610.3 322.3L610.3 322.3Q607.8 322.3 606.6 323.3Q605.4 324.3 605.4 325.8L605.4 325.8Q605.4 327.0 605.9 327.7Q606.5 328.4 607.7 328.9Q609.0 329.4 611.1 329.7L611.1 329.7Q614.7 330.4 616.8 331.3Q618.8 332.2 619.6 333.5Q620.4 334.8 620.4 336.6L620.4 336.6Q620.4 338.8 619.1 340.4Q617.9 341.9 615.8 342.7Q613.8 343.5 611.1 343.5ZM636.4 343L632.6 343Q629.4 343 627.8 341.5Q626.3 340.0 626.3 336.9L626.3 336.9L626.3 313.7L630.1 313.7L630.1 336.8Q630.1 338.4 630.8 339.1Q631.5 339.7 633.0 339.7L633.0 339.7L636.4 339.7L636.4 343ZM636.4 322.6L622.8 322.6L622.8 319.3L636.4 319.3L636.4 322.6ZM649.4 343.5L649.4 343.5Q646.0 343.5 643.6 342.0Q641.1 340.5 639.8 337.7Q638.5 334.9 638.5 331.1L638.5 331.1Q638.5 327.4 639.8 324.6Q641.1 321.8 643.5 320.3Q645.9 318.7 649.2 318.7L649.2 318.7Q652.3 318.7 654.7 320.2Q657.0 321.6 658.3 324.4Q659.7 327.2 659.7 331.2L659.7 331.2L659.7 332.3L642.4 332.3Q642.6 336.1 644.5 338.0Q646.3 340.0 649.4 340.0L649.4 340.0Q651.7 340.0 653.2 338.9Q654.7 337.8 655.3 336.0L655.3 336.0L659.3 336.3Q658.4 339.5 655.8 341.5Q653.1 343.5 649.4 343.5ZM642.4 329.0L642.4 329.0L655.5 329.0Q655.3 325.5 653.6 323.9Q651.8 322.3 649.2 322.3L649.2 322.3Q646.5 322.3 644.7 324.0Q642.9 325.7 642.4 329.0ZM667.9 343L664.1 343L664.1 319.3L667.6 319.3L667.7 325.3L667.2 324.9Q667.7 322.8 668.8 321.4Q669.9 320.1 671.5 319.4Q673.1 318.7 674.9 318.7L674.9 318.7Q677.7 318.7 679.4 319.9Q681.2 321.1 682.1 323.2Q683.0 325.2 683.0 327.7L683.0 327.7L683.0 343L679.2 343L679.2 328.8Q679.2 326.6 678.7 325.1Q678.2 323.6 677.1 322.8Q675.9 322.0 674.1 322.0L674.1 322.0Q671.4 322.0 669.6 323.8Q667.9 325.5 667.9 328.8L667.9 328.8L667.9 343ZM700.1 343L696.4 343Q693.1 343 691.6 341.5Q690.0 340.0 690.0 336.9L690.0 336.9L690.0 313.7L693.8 313.7L693.8 336.8Q693.8 338.4 694.5 339.1Q695.2 339.7 696.7 339.7L696.7 339.7L700.1 339.7L700.1 343ZM700.1 322.6L686.6 322.6L686.6 319.3L700.1 319.3L700.1 322.6Z M728.9 343L726.2 343Q724.2 343 722.9 341.9Q721.6 340.8 721.6 338.5L721.6 338.5L721.6 311.2L725.3 311.2L725.3 338.2Q725.3 338.9 725.7 339.3Q726.1 339.7 726.8 339.7L726.8 339.7L728.9 339.7L728.9 343ZM739.3 343.5L739.3 343.5Q735.6 343.5 733.4 341.8Q731.3 340.1 731.3 337.1L731.3 337.1Q731.3 334.0 733.1 332.3Q734.8 330.5 738.7 329.8L738.7 329.8L747.2 328.3Q747.2 325.3 745.8 323.8Q744.3 322.3 741.5 322.3L741.5 322.3Q739.1 322.3 737.6 323.4Q736.2 324.5 735.7 326.6L735.7 326.6L731.7 326.2Q732.3 322.9 734.9 320.8Q737.5 318.7 741.5 318.7L741.5 318.7Q746.1 318.7 748.5 321.3Q750.9 323.9 750.9 328.4L750.9 328.4L750.9 338.2Q750.9 339.0 751.2 339.3Q751.5 339.7 752.2 339.7L752.2 339.7L753.1 339.7L753.1 343Q752.9 343.0 752.5 343.1Q752.1 343.1 751.7 343.1L751.7 343.1Q750.1 343.1 749.1 342.6Q748.1 342.1 747.6 341.0Q747.2 339.9 747.2 338.1L747.2 338.1L747.6 338.2Q747.3 339.7 746.1 340.9Q744.9 342.1 743.1 342.8Q741.3 343.5 739.3 343.5ZM739.6 340.2L739.6 340.2Q742.0 340.2 743.7 339.3Q745.4 338.4 746.3 336.8Q747.2 335.2 747.2 333.2L747.2 333.2L747.2 331.5L739.5 333.0Q737.0 333.4 736.1 334.3Q735.2 335.2 735.2 336.7L735.2 336.7Q735.2 338.4 736.4 339.3Q737.6 340.2 739.6 340.2ZM759.9 349.7L756.8 349.7L756.8 346.4L759.6 346.4Q760.8 346.4 761.4 346.0Q762.0 345.6 762.4 344.8L762.4 344.8L763.2 342.6L761.9 342.6L753.2 319.3L757.3 319.3L764.4 339.1L771.2 319.3L775.3 319.3L765.7 346.0Q765.0 347.9 763.7 348.8Q762.3 349.7 759.9 349.7L759.9 349.7ZM787.3 343.5L787.3 343.5Q784.0 343.5 781.6 342.0Q779.1 340.5 777.8 337.7Q776.4 334.9 776.4 331.1L776.4 331.1Q776.4 327.3 777.8 324.5Q779.1 321.8 781.6 320.2Q784.0 318.7 787.3 318.7L787.3 318.7Q790.6 318.7 793.0 320.2Q795.5 321.8 796.8 324.5Q798.1 327.3 798.1 331.1L798.1 331.1Q798.1 334.9 796.8 337.7Q795.5 340.5 793.0 342.0Q790.6 343.5 787.3 343.5ZM787.3 340.0L787.3 340.0Q790.6 340.0 792.4 337.6Q794.2 335.2 794.2 331.1L794.2 331.1Q794.2 327.0 792.4 324.7Q790.6 322.3 787.3 322.3L787.3 322.3Q784.0 322.3 782.2 324.7Q780.4 327.0 780.4 331.1L780.4 331.1Q780.4 335.2 782.2 337.6Q784.0 340.0 787.3 340.0ZM806.5 343L801.4 343L801.4 337.9L806.5 337.9L806.5 343ZM814.8 343L809.8 343L809.8 337.9L814.8 337.9L814.8 343ZM823.1 343L818.1 343L818.1 337.9L823.1 337.9L823.1 343Z " opacity="0.75"/></g><mask id="satori_om-id-1-2"><rect x="64" y="532" width="1072" height="42" fill="#fff"/></mask><mask id="satori_om-id-1-2-0"><rect x="64" y="532" width="1072" height="42" fill="#fff"/></mask><mask id="satori_om-id-1-2-0-0"><rect x="64" y="532" width="290" height="42" fill="#fff"/></mask><clipPath id="satori_cp-id-1-2-0-0-0"><rect x="64" y="533" width="40" height="40"/></clipPath><mask id="satori_om-id-1-2-0-0-0"><rect x="64" y="533" width="40" height="40" fill="#fff"/></mask><image x="64" y="533" width="40" height="40" href="data:image/svg+xml;utf8,%3Csvg  xmlns=%22http://www.w3.org/2000/svg%22 width=%2225.398058252427184%22 height=%2224%22 viewBox=%220 0 327 309%22%3E%3Cpath fill=%22%231F1F1F%22 d=%22M311.63,154.67 L311.63,139.84 L190.93,146.79 C186.72,147.02 183.12,143.79 182.89,139.59 C182.79,137.72 183.36,135.98 184.4,134.59 L250.52,33.92 L224.82,19.08 L170.48,127.1 C168.58,130.86 163.99,132.38 160.23,130.48 C158.69,129.7 157.53,128.48 156.82,127.05 L102.51,19.08 L76.81,33.92 L143.19,134.98 C145.5,138.5 144.52,143.22 141.01,145.54 C139.59,146.47 137.98,146.87 136.4,146.78 L136.4,146.8 L15.7,139.85 L15.7,169.51 L136.4,162.56 C140.61,162.33 144.21,165.55 144.44,169.76 C144.54,171.62 143.96,173.37 142.93,174.76 L76.81,275.43 L89.68,282.86 L89.69,282.85 L102.53,290.26 L156.86,182.25 C158.76,178.49 163.35,176.97 167.11,178.87 C168.65,179.65 169.81,180.87 170.52,182.3 L224.83,290.26 L237.66,282.85 L238.09,282.62 L250.53,275.43 L184.16,174.37 C181.85,170.85 182.83,166.13 186.34,163.82 C187.76,162.89 189.37,162.49 190.94,162.58 L190.94,162.57 L311.64,169.52 L311.64,154.69 L311.63,154.67 Z M326.94,131.75 L326.94,177.59 L326.92,177.59 L326.91,178.01 C326.68,182.22 323.08,185.44 318.87,185.21 L205.21,178.67 L267.68,273.78 L267.93,274.19 C270.02,277.84 268.77,282.5 265.12,284.6 L245.69,295.81 L245.3,296.05 L225.45,307.51 L225.06,307.72 C221.3,309.62 216.71,308.11 214.81,304.34 L163.66,202.66 L112.59,304.19 C112.5,304.37 112.41,304.55 112.31,304.73 C110.2,308.38 105.52,309.62 101.88,307.51 L82.03,296.05 L82.04,296.04 L62.21,284.6 L61.82,284.36 C58.3,282.05 57.33,277.32 59.64,273.8 L122.12,178.67 L9.03,185.18 C8.71,185.22 8.38,185.24 8.05,185.24 C3.82,185.24 0.4,181.81 0.4,177.59 L0.4,131.75 L0.42,131.75 L0.43,131.33 C0.66,127.12 4.26,123.89 8.47,124.13 L122.13,130.68 L59.66,35.57 L59.41,35.16 C57.32,31.51 58.57,26.85 62.22,24.76 L101.51,2.07 C101.75,1.91 102.01,1.76 102.28,1.63 C106.04,-0.27 110.64,1.24 112.54,5.01 L163.69,106.69 L214.84,5.01 L214.85,5.02 L215.05,4.65 C217.14,1 221.8,-0.26 225.45,1.84 L265.15,24.76 L265.54,25 C269.06,27.31 270.03,32.04 267.72,35.55 L205.24,130.68 L318.33,124.16 C318.65,124.12 318.98,124.1 319.31,124.1 C323.54,124.1 326.96,127.53 326.96,131.75 L326.94,131.75 Z%22%3E%3C/path%3E%3C/svg%3E" preserveAspectRatio="none" clip-path="url(#satori_cp-id-1-2-0-0-0)" mask="url(#satori_om-id-1-2-0-0-0)"/><mask id="satori_om-id-1-2-0-0-0-0"><rect x="64" y="533" width="0" height="40" fill="#fff"/></mask><mask id="satori_om-id-1-2-0-0-1"><rect x="116" y="532" width="238" height="42" fill="#fff"/></mask><g  ><path fill="#1F1F1F" d="M121.7 564L118.9 564L118.9 541.3L133.2 541.3L133.2 544.0L120.3 544.0L121.7 542.6L121.7 553.0L120.3 551.6L132.6 551.6L132.6 554.2L120.3 554.2L121.7 552.8L121.7 564ZM142.0 564.4L142.0 564.4Q139.5 564.4 138 562.7Q136.5 561.0 136.5 558.0L136.5 558.0L136.5 547.0L139.2 547.0L139.2 557.2Q139.2 559.7 140.0 560.8Q140.9 562.0 142.8 562.0L142.8 562.0Q144.8 562.0 145.9 560.7Q147.1 559.4 147.1 557.2L147.1 557.2L147.1 547.0L149.8 547.0L149.8 564L147.2 564L147.2 559.8L147.6 560.0Q147.1 562.1 145.7 563.2Q144.2 564.4 142.0 564.4ZM157.6 564L154.9 564L154.9 547.0L157.3 547.0L157.4 551.3L157.1 551.2Q157.3 549.8 158.1 548.8Q158.8 547.8 159.8 547.2Q160.9 546.7 162.2 546.7L162.2 546.7Q164.4 546.7 165.8 547.9Q167.2 549.1 167.5 551.3L167.5 551.3L167.0 551.2Q167.3 549.8 168.0 548.8Q168.6 547.7 169.7 547.2Q170.8 546.7 172.2 546.7L172.2 546.7Q174.0 546.7 175.3 547.4Q176.5 548.2 177.2 549.6Q177.8 551.0 177.8 553.1L177.8 553.1L177.8 564L175.1 564L175.1 553.7Q175.1 551.4 174.2 550.2Q173.3 549.0 171.6 549.0L171.6 549.0Q170.4 549.0 169.5 549.6Q168.6 550.2 168.2 551.2Q167.7 552.3 167.7 553.9L167.7 553.9L167.7 564L165.0 564L165.0 553.9Q165.0 551.6 164.2 550.3Q163.4 549.0 161.5 549.0L161.5 549.0Q160.3 549.0 159.4 549.6Q158.6 550.2 158.1 551.3Q157.6 552.4 157.6 553.9L157.6 553.9L157.6 564ZM187.2 564.4L187.2 564.4Q184.6 564.4 183.0 563.2Q181.5 562.0 181.5 559.8L181.5 559.8Q181.5 557.6 182.8 556.4Q184.0 555.1 186.8 554.6L186.8 554.6L192.8 553.5Q192.8 551.3 191.8 550.3Q190.8 549.2 188.8 549.2L188.8 549.2Q187.0 549.2 186.0 550Q185.0 550.8 184.6 552.3L184.6 552.3L181.8 552.0Q182.2 549.6 184.1 548.1Q185.9 546.7 188.8 546.7L188.8 546.7Q192.1 546.7 193.8 548.5Q195.5 550.3 195.5 553.6L195.5 553.6L195.5 560.6Q195.5 561.2 195.7 561.4Q195.9 561.6 196.4 561.6L196.4 561.6L197.1 561.6L197.1 564Q197.0 564.0 196.7 564.0Q196.4 564.1 196.1 564.1L196.1 564.1Q194.9 564.1 194.2 563.7Q193.5 563.3 193.2 562.5Q192.8 561.8 192.8 560.5L192.8 560.5L193.2 560.5Q192.9 561.6 192.1 562.5Q191.2 563.4 189.9 563.9Q188.6 564.4 187.2 564.4ZM187.5 562.0L187.5 562.0Q189.2 562.0 190.4 561.4Q191.6 560.7 192.2 559.6Q192.8 558.4 192.8 557.0L192.8 557.0L192.8 555.8L187.3 556.8Q185.6 557.2 184.9 557.8Q184.3 558.5 184.3 559.5L184.3 559.5Q184.3 560.7 185.1 561.4Q186.0 562.0 187.5 562.0ZM207.8 564.4L207.8 564.4Q206.0 564.4 204.6 563.6Q203.3 562.8 202.5 561.4L202.5 561.4L202.4 564L200 564L200 541.3L202.7 541.3L202.7 549.4Q203.3 548.4 204.7 547.5Q206.0 546.7 207.8 546.7L207.8 546.7Q210.0 546.7 211.6 547.7Q213.3 548.8 214.2 550.8Q215.1 552.8 215.1 555.5L215.1 555.5Q215.1 558.2 214.2 560.2Q213.3 562.2 211.6 563.3Q210.0 564.4 207.8 564.4ZM207.6 561.8L207.6 561.8Q209.8 561.8 211.0 560.1Q212.3 558.4 212.3 555.5L212.3 555.5Q212.3 552.6 211.0 550.9Q209.8 549.2 207.7 549.2L207.7 549.2Q206.1 549.2 205.0 550.0Q203.9 550.7 203.3 552.1Q202.7 553.5 202.7 555.5L202.7 555.5Q202.7 557.4 203.3 558.9Q203.9 560.3 205.0 561.1Q206.1 561.8 207.6 561.8ZM223.7 564.4L223.7 564.4Q221.1 564.4 219.6 563.2Q218.0 562.0 218.0 559.8L218.0 559.8Q218.0 557.6 219.3 556.4Q220.6 555.1 223.4 554.6L223.4 554.6L229.4 553.5Q229.4 551.3 228.4 550.3Q227.4 549.2 225.3 549.2L225.3 549.2Q223.6 549.2 222.6 550Q221.5 550.8 221.2 552.3L221.2 552.3L218.3 552.0Q218.8 549.6 220.6 548.1Q222.5 546.7 225.3 546.7L225.3 546.7Q228.6 546.7 230.3 548.5Q232.1 550.3 232.1 553.6L232.1 553.6L232.1 560.6Q232.1 561.2 232.3 561.4Q232.5 561.6 233.0 561.6L233.0 561.6L233.6 561.6L233.6 564Q233.5 564.0 233.2 564.0Q232.9 564.1 232.6 564.1L232.6 564.1Q231.5 564.1 230.7 563.7Q230.0 563.3 229.7 562.5Q229.4 561.8 229.4 560.5L229.4 560.5L229.7 560.5Q229.5 561.6 228.6 562.5Q227.7 563.4 226.5 563.9Q225.2 564.4 223.7 564.4ZM224.0 562.0L224.0 562.0Q225.7 562.0 226.9 561.4Q228.1 560.7 228.7 559.6Q229.4 558.4 229.4 557.0L229.4 557.0L229.4 555.8L223.9 556.8Q222.1 557.2 221.5 557.8Q220.8 558.5 220.8 559.5L220.8 559.5Q220.8 560.7 221.7 561.4Q222.5 562.0 224.0 562.0ZM242.8 564.4L242.8 564.4Q240.5 564.4 238.9 563.6Q237.3 562.9 236.5 561.6Q235.6 560.3 235.5 558.7L235.5 558.7L238.3 558.5Q238.5 560 239.6 560.9Q240.6 561.8 242.8 561.8L242.8 561.8Q244.5 561.8 245.6 561.3Q246.6 560.7 246.6 559.5L246.6 559.5Q246.6 558.8 246.3 558.3Q246.0 557.9 245.0 557.6Q244.1 557.2 242.3 556.9L242.3 556.9Q239.8 556.4 238.4 555.8Q237.1 555.1 236.5 554.2Q235.9 553.2 235.9 551.8L235.9 551.8Q235.9 549.6 237.5 548.1Q239.2 546.7 242.3 546.7L242.3 546.7Q244.4 546.7 245.8 547.4Q247.2 548.2 248.0 549.4Q248.8 550.6 249.1 552.1L249.1 552.1L246.3 552.3Q246.1 551.4 245.6 550.7Q245.1 550.0 244.2 549.6Q243.4 549.2 242.2 549.2L242.2 549.2Q240.4 549.2 239.6 549.9Q238.7 550.6 238.7 551.7L238.7 551.7Q238.7 552.5 239.1 553.1Q239.5 553.6 240.4 553.9Q241.3 554.3 242.8 554.5L242.8 554.5Q245.4 555.0 246.8 555.6Q248.3 556.3 248.8 557.2Q249.4 558.1 249.4 559.5L249.4 559.5Q249.4 561.0 248.5 562.1Q247.6 563.2 246.2 563.8Q244.7 564.4 242.8 564.4ZM259.7 564.4L259.7 564.4Q257.3 564.4 255.5 563.3Q253.8 562.2 252.8 560.2Q251.9 558.2 251.9 555.5L251.9 555.5Q251.9 552.8 252.8 550.8Q253.8 548.9 255.5 547.8Q257.2 546.7 259.6 546.7L259.6 546.7Q261.8 546.7 263.5 547.7Q265.2 548.7 266.1 550.7Q267.0 552.7 267.0 555.6L267.0 555.6L267.0 556.4L254.7 556.4Q254.9 559.1 256.2 560.4Q257.5 561.8 259.7 561.8L259.7 561.8Q261.3 561.8 262.4 561.0Q263.5 560.3 263.9 559.0L263.9 559.0L266.8 559.2Q266.1 561.5 264.2 562.9Q262.4 564.4 259.7 564.4ZM254.7 554.0L254.7 554.0L264.1 554.0Q263.9 551.5 262.7 550.4Q261.4 549.2 259.6 549.2L259.6 549.2Q257.6 549.2 256.3 550.4Q255.1 551.6 254.7 554.0Z M288.5 564L281.3 564L281.3 541.3L288.4 541.3Q293.6 541.3 296.4 544.2Q299.3 547.2 299.3 552.7L299.3 552.7Q299.3 558.1 296.5 561.1Q293.7 564 288.5 564L288.5 564ZM284.1 544.0L284.1 561.3L288.4 561.3Q292.4 561.3 294.4 559.2Q296.4 557.0 296.4 552.7L296.4 552.7Q296.4 548.3 294.4 546.1Q292.4 544.0 288.4 544.0L288.4 544.0L284.1 544.0ZM310.3 564.4L310.3 564.4Q308 564.4 306.2 563.3Q304.5 562.2 303.5 560.2Q302.6 558.2 302.6 555.5L302.6 555.5Q302.6 552.8 303.5 550.8Q304.5 548.8 306.2 547.7Q308 546.7 310.3 546.7L310.3 546.7Q312.7 546.7 314.4 547.7Q316.2 548.8 317.1 550.8Q318.1 552.8 318.1 555.5L318.1 555.5Q318.1 558.2 317.1 560.2Q316.2 562.2 314.4 563.3Q312.7 564.4 310.3 564.4ZM310.3 561.8L310.3 561.8Q312.7 561.8 314.0 560.1Q315.3 558.5 315.3 555.5L315.3 555.5Q315.3 552.6 314.0 550.9Q312.7 549.2 310.3 549.2L310.3 549.2Q308 549.2 306.7 550.9Q305.4 552.6 305.4 555.5L305.4 555.5Q305.4 558.5 306.7 560.1Q308 561.8 310.3 561.8ZM328.4 564.4L328.4 564.4Q326.0 564.4 324.2 563.3Q322.5 562.2 321.5 560.2Q320.6 558.2 320.6 555.5L320.6 555.5Q320.6 552.8 321.5 550.8Q322.5 548.9 324.2 547.8Q326.0 546.7 328.4 546.7L328.4 546.7Q330.3 546.7 331.8 547.3Q333.3 548.0 334.3 549.3Q335.3 550.7 335.6 552.5L335.6 552.5L332.7 552.7Q332.4 551.0 331.3 550.1Q330.1 549.2 328.4 549.2L328.4 549.2Q326.0 549.2 324.7 550.9Q323.4 552.6 323.4 555.5L323.4 555.5Q323.4 558.5 324.7 560.1Q326.0 561.8 328.4 561.8L328.4 561.8Q330.1 561.8 331.3 560.9Q332.4 559.9 332.7 558.0L332.7 558.0L335.6 558.2Q335.3 560.1 334.3 561.5Q333.3 562.8 331.8 563.6Q330.3 564.4 328.4 564.4ZM345.1 564.4L345.1 564.4Q342.8 564.4 341.2 563.6Q339.6 562.9 338.7 561.6Q337.9 560.3 337.7 558.7L337.7 558.7L340.5 558.5Q340.8 560 341.9 560.9Q342.9 561.8 345.1 561.8L345.1 561.8Q346.8 561.8 347.8 561.3Q348.9 560.7 348.9 559.5L348.9 559.5Q348.9 558.8 348.5 558.3Q348.2 557.9 347.3 557.6Q346.4 557.2 344.5 556.9L344.5 556.9Q342.1 556.4 340.7 555.8Q339.3 555.1 338.7 554.2Q338.1 553.2 338.1 551.8L338.1 551.8Q338.1 549.6 339.8 548.1Q341.5 546.7 344.5 546.7L344.5 546.7Q346.6 546.7 348.0 547.4Q349.5 548.2 350.3 549.4Q351.1 550.6 351.4 552.1L351.4 552.1L348.5 552.3Q348.4 551.4 347.8 550.7Q347.3 550.0 346.5 549.6Q345.7 549.2 344.5 549.2L344.5 549.2Q342.7 549.2 341.8 549.9Q341.0 550.6 341.0 551.7L341.0 551.7Q341.0 552.5 341.4 553.1Q341.8 553.6 342.7 553.9Q343.6 554.3 345.1 554.5L345.1 554.5Q347.6 555.0 349.1 555.6Q350.5 556.3 351.1 557.2Q351.7 558.1 351.7 559.5L351.7 559.5Q351.7 561.0 350.8 562.1Q349.9 563.2 348.4 563.8Q346.9 564.4 345.1 564.4Z "/></g><mask id="satori_om-id-1-2-0-1"><rect x="354" y="532" width="343" height="42" fill="#fff"/></mask><g opacity="0.5"></g><g  ><path fill="#1F1F1F" d="M363.4 558.4L363.4 558.4Q360.9 558.4 359.0 557.3Q357.1 556.1 356.2 554.0Q355.2 551.9 355.2 548.9L355.2 548.9Q355.2 546.0 356.2 543.9Q357.1 541.7 359.0 540.6Q360.9 539.4 363.4 539.4L363.4 539.4Q366.1 539.4 367.9 540.6Q369.8 541.7 370.8 543.9Q371.8 546.0 371.8 548.9L371.8 548.9Q371.8 551.9 370.8 554.0Q369.8 556.1 367.9 557.3Q366.1 558.4 363.4 558.4ZM363.4 556.3L363.4 556.3Q365.3 556.3 366.7 555.4Q368.0 554.5 368.7 552.9Q369.5 551.2 369.5 548.9L369.5 548.9Q369.5 546.6 368.7 545.0Q368.0 543.3 366.7 542.4Q365.3 541.6 363.4 541.6L363.4 541.6Q361.6 541.6 360.2 542.4Q358.9 543.3 358.2 545.0Q357.5 546.6 357.5 548.9L357.5 548.9Q357.5 551.2 358.2 552.9Q358.9 554.5 360.2 555.4Q361.6 556.3 363.4 556.3ZM377.1 561.8L375.0 561.8L375.0 544.4L377.0 544.4L377.0 547.4L376.7 547.2Q377.2 545.7 378.4 544.9Q379.6 544.1 381.2 544.1L381.2 544.1Q383.2 544.1 384.5 545.1Q385.8 546.1 386.4 547.7Q387.0 549.3 387.0 551.2L387.0 551.2Q387.0 553.1 386.4 554.7Q385.8 556.3 384.5 557.3Q383.2 558.3 381.2 558.3L381.2 558.3Q380.1 558.3 379.2 557.9Q378.3 557.6 377.7 557.0Q377.0 556.3 376.8 555.4L376.8 555.4L377.1 555.1L377.1 561.8ZM381.0 556.3L381.0 556.3Q382.7 556.3 383.7 554.9Q384.8 553.6 384.8 551.2L384.8 551.2Q384.8 548.8 383.7 547.5Q382.7 546.2 381.0 546.2L381.0 546.2Q379.8 546.2 378.9 546.7Q378.1 547.3 377.6 548.4Q377.1 549.6 377.1 551.2L377.1 551.2Q377.1 552.9 377.6 554.0Q378.0 555.1 378.9 555.7Q379.8 556.3 381.0 556.3ZM395.2 558.3L395.2 558.3Q393.3 558.3 391.9 557.4Q390.5 556.6 389.8 555.0Q389.0 553.4 389.0 551.2L389.0 551.2Q389.0 549.1 389.8 547.5Q390.5 545.9 391.9 545.0Q393.3 544.1 395.1 544.1L395.1 544.1Q396.9 544.1 398.3 545.0Q399.6 545.8 400.4 547.4Q401.1 549.0 401.1 551.2L401.1 551.2L401.1 551.9L391.3 551.9Q391.4 554.1 392.4 555.2Q393.5 556.3 395.2 556.3L395.2 556.3Q396.6 556.3 397.4 555.6Q398.3 555.0 398.6 554.0L398.6 554.0L400.9 554.2Q400.4 556.0 398.9 557.1Q397.4 558.3 395.2 558.3ZM391.3 550.0L391.3 550.0L398.8 550.0Q398.6 548.0 397.6 547.1Q396.6 546.2 395.1 546.2L395.1 546.2Q393.6 546.2 392.6 547.1Q391.6 548.1 391.3 550.0ZM406.2 558L404.0 558L404.0 544.4L406.0 544.4L406.1 547.9L405.8 547.7Q406.1 546.5 406.7 545.7Q407.4 544.9 408.3 544.5Q409.2 544.1 410.2 544.1L410.2 544.1Q411.8 544.1 412.8 544.8Q413.8 545.5 414.3 546.7Q414.8 547.8 414.8 549.3L414.8 549.3L414.8 558L412.7 558L412.7 549.9Q412.7 548.6 412.4 547.8Q412.1 546.9 411.4 546.5Q410.8 546.0 409.8 546.0L409.8 546.0Q408.2 546.0 407.2 547.0Q406.2 548.0 406.2 549.9L406.2 549.9L406.2 558Z M432.4 558.4L432.4 558.4Q430.3 558.4 428.7 557.6Q427.2 556.8 426.3 555.4Q425.3 554.0 425.2 552.2L425.2 552.2L427.5 552.0Q427.7 553.4 428.3 554.3Q428.9 555.3 429.9 555.8Q431.0 556.3 432.4 556.3L432.4 556.3Q433.7 556.3 434.6 555.9Q435.5 555.6 436.0 555.0Q436.5 554.3 436.5 553.4L436.5 553.4Q436.5 552.5 436.1 551.9Q435.7 551.2 434.6 550.7Q433.4 550.1 431.3 549.6L431.3 549.6Q429.2 549.1 427.9 548.4Q426.7 547.8 426.1 546.9Q425.6 545.9 425.6 544.6L425.6 544.6Q425.6 543.0 426.3 541.9Q427.0 540.7 428.4 540.1Q429.8 539.4 431.6 539.4L431.6 539.4Q433.6 539.4 435.0 540.2Q436.5 540.9 437.3 542.2Q438.2 543.5 438.4 545.2L438.4 545.2L436.1 545.4Q435.9 544.3 435.4 543.4Q434.8 542.5 433.9 542.1Q432.9 541.6 431.6 541.6L431.6 541.6Q429.9 541.6 428.9 542.4Q427.9 543.2 427.9 544.5L427.9 544.5Q427.9 545.3 428.3 545.9Q428.7 546.4 429.7 546.9Q430.7 547.3 432.6 547.8L432.6 547.8Q434.9 548.3 436.3 549.1Q437.6 549.9 438.2 550.9Q438.8 551.9 438.8 553.2L438.8 553.2Q438.8 554.8 437.9 556.0Q437.1 557.2 435.7 557.8Q434.3 558.4 432.4 558.4ZM447.9 558.3L447.9 558.3Q446.0 558.3 444.6 557.4Q443.2 556.6 442.4 555.0Q441.7 553.4 441.7 551.2L441.7 551.2Q441.7 549.0 442.4 547.5Q443.2 545.9 444.6 545.0Q446.0 544.1 447.9 544.1L447.9 544.1Q449.7 544.1 451.1 545.0Q452.5 545.9 453.3 547.5Q454.1 549.0 454.1 551.2L454.1 551.2Q454.1 553.4 453.3 555.0Q452.5 556.6 451.1 557.4Q449.7 558.3 447.9 558.3ZM447.9 556.3L447.9 556.3Q449.7 556.3 450.8 554.9Q451.8 553.6 451.8 551.2L451.8 551.2Q451.8 548.9 450.8 547.5Q449.7 546.2 447.9 546.2L447.9 546.2Q446.0 546.2 445.0 547.5Q443.9 548.9 443.9 551.2L443.9 551.2Q443.9 553.6 445.0 554.9Q446.0 556.3 447.9 556.3ZM461.4 558.3L461.4 558.3Q459.4 558.3 458.2 556.9Q457.0 555.6 457.0 553.2L457.0 553.2L457.0 544.4L459.1 544.4L459.1 552.6Q459.1 554.5 459.8 555.5Q460.5 556.4 462.0 556.4L462.0 556.4Q463.6 556.4 464.5 555.4Q465.5 554.3 465.5 552.5L465.5 552.5L465.5 544.4L467.6 544.4L467.6 558L465.6 558L465.6 554.6L465.9 554.8Q465.5 556.5 464.3 557.4Q463.2 558.3 461.4 558.3ZM473.9 558L471.7 558L471.7 544.4L473.6 544.4L473.7 547.9L473.5 547.8Q473.8 546.0 474.6 545.2Q475.5 544.4 476.9 544.4L476.9 544.4L478.2 544.4L478.2 546.5L476.9 546.5Q475.9 546.5 475.2 546.9Q474.6 547.2 474.2 548.0Q473.9 548.7 473.9 549.8L473.9 549.8L473.9 558ZM485.7 558.3L485.7 558.3Q483.8 558.3 482.4 557.4Q481.0 556.6 480.2 555.0Q479.5 553.4 479.5 551.2L479.5 551.2Q479.5 549.1 480.2 547.5Q481.0 545.9 482.4 545.0Q483.8 544.1 485.7 544.1L485.7 544.1Q487.2 544.1 488.5 544.7Q489.7 545.2 490.4 546.3Q491.2 547.3 491.4 548.8L491.4 548.8L489.2 549.0Q489.0 547.6 488.0 546.9Q487.1 546.2 485.7 546.2L485.7 546.2Q483.8 546.2 482.8 547.5Q481.7 548.9 481.7 551.2L481.7 551.2Q481.7 553.6 482.8 554.9Q483.8 556.3 485.7 556.3L485.7 556.3Q487.1 556.3 488.0 555.5Q489.0 554.7 489.2 553.2L489.2 553.2L491.4 553.3Q491.2 554.9 490.4 556.0Q489.7 557.1 488.5 557.7Q487.2 558.3 485.7 558.3ZM499.4 558.3L499.4 558.3Q497.5 558.3 496.1 557.4Q494.7 556.6 493.9 555.0Q493.2 553.4 493.2 551.2L493.2 551.2Q493.2 549.1 493.9 547.5Q494.7 545.9 496.1 545.0Q497.4 544.1 499.3 544.1L499.3 544.1Q501.1 544.1 502.4 545.0Q503.8 545.8 504.5 547.4Q505.3 549.0 505.3 551.2L505.3 551.2L505.3 551.9L495.4 551.9Q495.6 554.1 496.6 555.2Q497.6 556.3 499.4 556.3L499.4 556.3Q500.7 556.3 501.6 555.6Q502.5 555.0 502.8 554.0L502.8 554.0L505.1 554.2Q504.6 556.0 503.1 557.1Q501.6 558.3 499.4 558.3ZM495.4 550.0L495.4 550.0L502.9 550.0Q502.8 548.0 501.8 547.1Q500.8 546.2 499.3 546.2L499.3 546.2Q497.7 546.2 496.7 547.1Q495.7 548.1 495.4 550.0Z M522.1 558L516.4 558L516.4 539.8L522.0 539.8Q526.2 539.8 528.5 542.2Q530.7 544.6 530.7 548.9L530.7 548.9Q530.7 553.3 528.5 555.6Q526.3 558 522.1 558L522.1 558ZM518.6 542.0L518.6 555.8L522.0 555.8Q525.2 555.8 526.8 554.1Q528.4 552.4 528.4 548.9L528.4 548.9Q528.4 545.4 526.8 543.7Q525.2 542.0 522.0 542.0L522.0 542.0L518.6 542.0ZM539.6 558.3L539.6 558.3Q537.7 558.3 536.3 557.4Q534.9 556.6 534.1 555.0Q533.4 553.4 533.4 551.2L533.4 551.2Q533.4 549.0 534.1 547.5Q534.9 545.9 536.3 545.0Q537.7 544.1 539.6 544.1L539.6 544.1Q541.4 544.1 542.8 545.0Q544.2 545.9 545.0 547.5Q545.8 549.0 545.8 551.2L545.8 551.2Q545.8 553.4 545.0 555.0Q544.2 556.6 542.8 557.4Q541.4 558.3 539.6 558.3ZM539.6 556.3L539.6 556.3Q541.4 556.3 542.5 554.9Q543.5 553.6 543.5 551.2L543.5 551.2Q543.5 548.9 542.5 547.5Q541.4 546.2 539.6 546.2L539.6 546.2Q537.7 546.2 536.7 547.5Q535.6 548.9 535.6 551.2L535.6 551.2Q535.6 553.6 536.7 554.9Q537.7 556.3 539.6 556.3ZM554.0 558.3L554.0 558.3Q552.1 558.3 550.7 557.4Q549.3 556.6 548.5 555.0Q547.8 553.4 547.8 551.2L547.8 551.2Q547.8 549.1 548.5 547.5Q549.3 545.9 550.7 545.0Q552.1 544.1 554.0 544.1L554.0 544.1Q555.5 544.1 556.8 544.7Q558.0 545.2 558.7 546.3Q559.5 547.3 559.7 548.8L559.7 548.8L557.5 549.0Q557.3 547.6 556.3 546.9Q555.4 546.2 554.0 546.2L554.0 546.2Q552.1 546.2 551.1 547.5Q550.0 548.9 550.0 551.2L550.0 551.2Q550.0 553.6 551.1 554.9Q552.1 556.3 554.0 556.3L554.0 556.3Q555.4 556.3 556.3 555.5Q557.3 554.7 557.5 553.2L557.5 553.2L559.7 553.3Q559.5 554.9 558.7 556.0Q558.0 557.1 556.8 557.7Q555.5 558.3 554.0 558.3ZM566.9 558.3L566.9 558.3Q564.8 558.3 563.6 556.9Q562.4 555.6 562.4 553.2L562.4 553.2L562.4 544.4L564.6 544.4L564.6 552.6Q564.6 554.5 565.3 555.5Q566.0 556.4 567.4 556.4L567.4 556.4Q569.0 556.4 570.0 555.4Q570.9 554.3 570.9 552.5L570.9 552.5L570.9 544.4L573.0 544.4L573.0 558L571.0 558L571.0 554.6L571.3 554.8Q570.9 556.5 569.8 557.4Q568.6 558.3 566.9 558.3ZM579.3 558L577.1 558L577.1 544.4L579.1 544.4L579.2 547.9L578.9 547.8Q579.1 546.6 579.7 545.8Q580.3 545.0 581.1 544.6Q581.9 544.1 583.0 544.1L583.0 544.1Q584.7 544.1 585.8 545.1Q587.0 546.1 587.2 547.8L587.2 547.8L586.8 547.8Q587.0 546.6 587.6 545.8Q588.1 545.0 589.0 544.6Q589.9 544.1 591.0 544.1L591.0 544.1Q592.5 544.1 593.5 544.7Q594.5 545.3 595.0 546.5Q595.5 547.6 595.5 549.3L595.5 549.3L595.5 558L593.3 558L593.3 549.7Q593.3 547.9 592.6 547.0Q591.9 546.0 590.5 546.0L590.5 546.0Q589.5 546.0 588.8 546.5Q588.1 546.9 587.8 547.8Q587.4 548.7 587.4 549.9L587.4 549.9L587.4 558L585.2 558L585.2 549.9Q585.2 548.1 584.6 547.0Q583.9 546.0 582.4 546.0L582.4 546.0Q581.5 546.0 580.8 546.5Q580.1 546.9 579.7 547.8Q579.3 548.7 579.3 549.9L579.3 549.9L579.3 558ZM604.6 558.3L604.6 558.3Q602.7 558.3 601.3 557.4Q599.9 556.6 599.1 555.0Q598.4 553.4 598.4 551.2L598.4 551.2Q598.4 549.1 599.1 547.5Q599.9 545.9 601.2 545.0Q602.6 544.1 604.5 544.1L604.5 544.1Q606.2 544.1 607.6 545.0Q609.0 545.8 609.7 547.4Q610.5 549.0 610.5 551.2L610.5 551.2L610.5 551.9L600.6 551.9Q600.7 554.1 601.8 555.2Q602.8 556.3 604.6 556.3L604.6 556.3Q605.9 556.3 606.8 555.6Q607.6 555.0 608.0 554.0L608.0 554.0L610.3 554.2Q609.7 556.0 608.2 557.1Q606.7 558.3 604.6 558.3ZM600.6 550.0L600.6 550.0L608.1 550.0Q608.0 548.0 607.0 547.1Q606.0 546.2 604.5 546.2L604.5 546.2Q602.9 546.2 601.9 547.1Q600.9 548.1 600.6 550.0ZM615.5 558L613.4 558L613.4 544.4L615.4 544.4L615.4 547.9L615.2 547.7Q615.4 546.5 616.1 545.7Q616.7 544.9 617.6 544.5Q618.5 544.1 619.6 544.1L619.6 544.1Q621.1 544.1 622.1 544.8Q623.2 545.5 623.7 546.7Q624.2 547.8 624.2 549.3L624.2 549.3L624.2 558L622.0 558L622.0 549.9Q622.0 548.6 621.7 547.8Q621.4 546.9 620.8 546.5Q620.1 546.0 619.1 546.0L619.1 546.0Q617.6 546.0 616.5 547.0Q615.5 548.0 615.5 549.9L615.5 549.9L615.5 558ZM634.3 558L632.2 558Q630.4 558 629.5 557.2Q628.6 556.3 628.6 554.5L628.6 554.5L628.6 541.3L630.7 541.3L630.7 554.5Q630.7 555.4 631.1 555.7Q631.6 556.1 632.4 556.1L632.4 556.1L634.3 556.1L634.3 558ZM634.3 546.3L626.6 546.3L626.6 544.4L634.3 544.4L634.3 546.3ZM640.7 558.3L640.7 558.3Q638.6 558.3 637.3 557.3Q636.1 556.4 636.1 554.6L636.1 554.6Q636.1 552.9 637.1 551.9Q638.1 550.9 640.4 550.5L640.4 550.5L645.2 549.6Q645.2 547.9 644.4 547.0Q643.6 546.2 641.9 546.2L641.9 546.2Q640.5 546.2 639.7 546.8Q638.9 547.4 638.6 548.6L638.6 548.6L636.3 548.4Q636.7 546.5 638.2 545.3Q639.6 544.1 641.9 544.1L641.9 544.1Q644.6 544.1 645.9 545.6Q647.3 547.1 647.3 549.7L647.3 549.7L647.3 555.3Q647.3 555.7 647.5 555.9Q647.7 556.1 648.0 556.1L648.0 556.1L648.6 556.1L648.6 558Q648.5 558.0 648.2 558.0Q648.0 558.1 647.8 558.1L647.8 558.1Q646.8 558.1 646.3 557.8Q645.7 557.5 645.4 556.8Q645.2 556.2 645.2 555.2L645.2 555.2L645.4 555.2Q645.3 556.1 644.6 556.8Q643.9 557.5 642.8 557.9Q641.8 558.3 640.7 558.3ZM640.9 556.4L640.9 556.4Q642.2 556.4 643.2 555.9Q644.2 555.4 644.7 554.5Q645.2 553.5 645.2 552.4L645.2 552.4L645.2 551.4L640.8 552.3Q639.4 552.5 638.9 553.0Q638.3 553.6 638.3 554.4L638.3 554.4Q638.3 555.4 639.0 555.9Q639.7 556.4 640.9 556.4ZM657.5 558L655.3 558Q653.5 558 652.6 557.2Q651.7 556.3 651.7 554.5L651.7 554.5L651.7 541.3L653.9 541.3L653.9 554.5Q653.9 555.4 654.3 555.7Q654.7 556.1 655.5 556.1L655.5 556.1L657.5 556.1L657.5 558ZM657.5 546.3L649.7 546.3L649.7 544.4L657.5 544.4L657.5 546.3ZM662.4 558L660.2 558L660.2 544.4L662.4 544.4L662.4 558ZM662.4 542.3L660.2 542.3L660.2 539.8L662.4 539.8L662.4 542.3ZM671.5 558.3L671.5 558.3Q669.6 558.3 668.2 557.4Q666.8 556.6 666.1 555.0Q665.3 553.4 665.3 551.2L665.3 551.2Q665.3 549.0 666.1 547.5Q666.8 545.9 668.2 545.0Q669.6 544.1 671.5 544.1L671.5 544.1Q673.4 544.1 674.8 545.0Q676.2 545.9 676.9 547.5Q677.7 549.0 677.7 551.2L677.7 551.2Q677.7 553.4 676.9 555.0Q676.2 556.6 674.8 557.4Q673.4 558.3 671.5 558.3ZM671.5 556.3L671.5 556.3Q673.4 556.3 674.4 554.9Q675.5 553.6 675.5 551.2L675.5 551.2Q675.5 548.9 674.4 547.5Q673.4 546.2 671.5 546.2L671.5 546.2Q669.6 546.2 668.6 547.5Q667.5 548.9 667.5 551.2L667.5 551.2Q667.5 553.6 668.6 554.9Q669.6 556.3 671.5 556.3ZM682.8 558L680.6 558L680.6 544.4L682.6 544.4L682.7 547.9L682.4 547.7Q682.7 546.5 683.3 545.7Q684.0 544.9 684.9 544.5Q685.8 544.1 686.8 544.1L686.8 544.1Q688.4 544.1 689.4 544.8Q690.4 545.5 690.9 546.7Q691.4 547.8 691.4 549.3L691.4 549.3L691.4 558L689.3 558L689.3 549.9Q689.3 548.6 689.0 547.8Q688.7 546.9 688.0 546.5Q687.4 546.0 686.4 546.0L686.4 546.0Q684.8 546.0 683.8 547.0Q682.8 548.0 682.8 549.9L682.8 549.9L682.8 558Z " opacity="0.5"/></g></svg>